<svg version="1" xmlns="http://www.w3.org/2000/svg" width="2234.667" height="2234.667" viewBox="0 0 1676.000000 1676.000000"><path d="M317.5 2.5c-27.3 4.6-46 28-44.2 55.5 1.1 16.1 5.5 24.8 20.6 40.4 23.3 23.9 90.5 92.4 137.8 140.5l25.2 25.6.2 14c0 7.7.2 21 .4 29.5.2 14.5 1.4 99.5 2 146.3.2 16.1.6 21.2 1.6 22.2.8.7 5.9 4.3 11.4 7.9 5.5 3.6 10.5 6.9 11 7.3 1.4 1.1 51.5 34.5 53.7 35.8 2.7 1.6 41.8 27.8 41.8 28 0 .1-3.3 2.4-7.2 5.1-4 2.7-7.7 5.3-8.3 5.7-.9.8-72.6 51.1-82 57.6-6.1 4.2-53.7 37.6-70.4 49.4l-9.4 6.7-148.6.1c-81.7 0-150.2.2-152.1.5-19.4 2.4-38.3 20-43.1 39.9-7 29.3 9.2 57.7 37.6 66.1 5.6 1.6 16.5 1.8 172.2 1.8l166.2.1 32.3-22.7c17.8-12.5 33-23.2 33.8-23.7.8-.6 6.5-4.6 12.5-8.8 6.1-4.3 13.1-9.2 15.5-10.8 2.5-1.7 5.1-3.5 6-4.2 5.2-4.2 60.3-42.3 61.1-42.3 1.9 0 .8 1.8-2.8 4.8-8.8 7.2-10.9 8.9-15.7 13.2-2.8 2.5-9.1 8.3-14 13-7.6 7.3-11.6 11.4-20.6 20.9-2 2.1-15.9 17.9-18.5 21-1.1 1.4-2.7 3.2-3.5 4.1-2.7 2.9-7.5 8.5-10.5 12.4-1.6 2.1-3.5 4.4-4 5-3.7 3.9-48.6 63.6-75.1 99.8-60.3 82.1-120.2 168.5-134 193.3-2.1 3.8-4.7 8.3-5.7 10-.9 1.6-2.6 4.8-3.6 7s-6.2 13-11.6 24c-12 24.8-15.7 33-20.1 45.2-3.6 9.9-8.9 28.2-9.9 34.2-.3 1.9-.8 3.8-1 4.1-.3.4-.7 2.5-1.1 4.5-.3 2.1-.7 4.6-.9 5.5-.2 1-.7 4-1.1 6.7-.3 2.6-.8 5.7-1 6.8-1.1 5.3-1.9 20.5-1.8 34.5 0 22.4 1.5 34 7 54.8 5.9 21.7 12.8 37.4 21.8 49 6.4 8.4 25.6 27.3 33.9 33.6 23.9 17.9 49.4 28.9 85.7 37 14.9 3.3 16.9 3.6 32 5.5 6.5.8 38.7.7 42.5-.2 1.1-.2 4.6-.8 7.9-1.2 7.2-.8 8.5-1.1 21.8-3.5 16.1-3.1 26.5-6.5 42-14 3.4-1.7 6.3-2.8 6.6-2.5.2.2 1.2 3.3 2.2 6.9l1.8 6.4-5.4 7.9c-3 4.3-9.3 13.4-14 20.3-4.7 6.9-15.7 22.8-24.5 35.5-8.7 12.6-19.3 27.9-23.4 34-4.1 6-8.3 12.1-9.3 13.5-8.5 12.2-43.2 62.6-45.7 66.5-11.1 17.4-11 39.5.3 56.5 16 24.1 50.3 31.2 75.3 15.4 2.4-1.5 6.8-5.2 9.7-8.3 2.8-3.1 22.1-30.1 42.7-60.1 54.8-79.8 54.7-79.7 58.5-85 3.1-4.3 27.3-39.4 46.6-67.7 8.2-11.9 8-9.1 1.9-28.8-2-6.6-4.1-13.6-4.5-15.5-.5-1.9-2-7.3-3.4-12-3.3-10.6-4.2-13.6-10.1-33.8l-4.8-16.3 6.5-6.7c8.3-8.6 15.8-17.4 29.2-34.2 6-7.4 11.2-13.5 11.6-13.5.4 0 4.1 4.9 8 11 4 6 8.2 12.2 9.4 13.7 1.1 1.4 3.2 4.1 4.6 5.9 7.3 9.7 18.5 20.5 29.3 28.2 17.7 12.7 34.9 22.3 56.2 31.5 18.3 7.8 25.4 10 39 11.7 4.9.6 27.1.7 30.5.1 1.4-.3 4.3-.7 6.5-1 21.2-2.8 64-23.3 92-44 14-10.4 27.6-25.9 41-46.6 3.8-5.8 7-10.7 7.2-10.9.4-.6 2.5 1.8 8.8 9.7 14.9 18.9 23.4 29 34.6 40.6l6.6 6.9-1.8 3.6c-1.5 3.1-27.3 85-28.6 90.7-.4 1.8 7.5 14.8 15 24.4 1.7 2.3 27.6 39.2 47.4 67.7 10.3 14.9 37 53.2 41.7 59.8 2 2.7 13.3 18.9 25.2 36 22.5 32.3 26.7 37.6 34.7 42.7 16.4 10.5 39.6 11.4 56.7 2.2 13.1-7 23.5-20.9 26.5-35 3.1-15.1-.2-28.8-10.7-43.5-5.3-7.5-43.9-62.7-47.9-68.4-9.8-14.2-12.4-18-12.9-18.5s-5.2-7.2-12.9-18.5c-2-2.9-12.9-18.5-24.3-34.8l-20.6-29.4 2.6-8.6 2.5-8.6 6.6 3.3c3.6 1.8 8.2 3.8 10.1 4.5 1.9.8 4.9 1.9 6.5 2.6 5.7 2.5 19.1 5.7 33.5 8.1 5.2.8 10.6 1.7 11.9 1.9 11.5 2 39.2 2.6 53.1 1.3 4.1-.5 11.1-1.5 15.5-2.4 4.4-.8 9.1-1.8 10.5-2 6.7-1.3 26.4-6.5 33.5-8.9 31.6-10.6 52.6-23.4 75-45.9 12.2-12.3 18.9-20.6 24.3-30.6 8.1-14.9 16.5-44.7 19-67 1.2-10.6.8-44.8-.6-55-4.6-33.1-13.3-63.4-25.3-88-2.1-4.4-3.9-8.3-3.9-8.6 0-.2-5.1-10.9-11.4-23.7-12.2-24.6-21.4-40.5-36.5-63.2-8.6-12.7-13.4-19.8-29-42.5-2.8-4.1-10-14.5-16.1-23-6-8.5-11.5-16.3-12.2-17.3C1303 935 1231.2 836 1230 835c-.3-.3-7.9-10.4-17-22.5-21-28-36.8-48.3-44.5-56.9-.5-.6-5-5.8-10-11.5-4.9-5.6-10-11.5-11.2-12.9-2.2-2.4-2.9-4.2-1.8-4.2.7 0 6.5 3.1 11 5.9 3.1 1.9 31.8 18.9 53 31.5 6.6 3.9 18.4 10.9 26.2 15.6l14.3 8.5 167.2-.1c156.8 0 167.7-.2 173.3-1.8 20-5.9 34.2-21.2 37.9-40.7 5.2-27.2-10.9-53.2-37.6-60.6-5.8-1.6-17.5-1.7-158.9-1.8l-152.7-.1-7.3-4.5c-4.1-2.4-8.3-4.9-9.4-5.5-4.4-2.4-63.8-37.8-68.3-40.6-1.5-1-3.4-2.1-4.2-2.5-.8-.4-11.6-6.7-24-14.1-12.4-7.4-23.8-14.2-25.5-15.2-1.6-.9-7.7-4.5-13.5-8s-11.4-6.8-12.5-7.4c-16.7-9.5-18.8-11-17-12 1.8-1.1 20.6-16 25.5-20.2 2.1-1.9 16.6-13.9 32.5-26.9 2.2-1.8 11-9.1 19.5-16.1 8.5-7.1 19.3-16 24-19.8 4.7-3.9 8.7-7.2 9-7.6.3-.3 2.5-2.1 5-4 2.4-1.9 5.9-4.9 7.8-6.6l3.4-3.1.3-22.9c.2-12.6.7-45.2 1-72.4.4-27.2.8-57.4 1-67 .2-9.6.4-23.4.4-30.5l.1-13 86.1-86.4c47.3-47.6 87.3-88.1 88.8-90 16.4-20.9 13.9-52.1-5.7-70.9-9.7-9.3-20.1-13.4-36.7-14.6-4.9-.4-16.6 2.7-23.5 6.1-7.1 3.6-11.8 8.2-109.5 106.2-56.1 56.3-102.5 102.9-103.2 103.6-1.2 1.2-1.4 11.6-2.9 117.5-.9 67.2-1.2 84.1-1.6 84.4-.7.5-23.3 19.1-24.5 20.1-2.9 2.6-37.6 31-38.2 31.2-.3.2-1.9-2.3-3.6-5.4-1.6-3.2-5.3-9.2-8-13.3l-5.1-7.6 5.6-6.5c3-3.7 7.7-10.3 10.4-14.9 4.6-7.7 12-24.5 13-29.3.3-1.2 1.2-5.4 2-9.2 2.6-11.6 3.1-17.2 3.1-37 0-20.3-.7-27.4-3.6-39-4.6-18.1-14.7-36.8-29.1-53.8-24.9-29.4-51.8-47.5-90.6-61.2l-9.3-3.3 4.3-4.5c18.1-18.9 21.3-22.6 23.4-27.1 5.2-11.6 5.2-22.3-.1-33.1-9.3-19.1-33.8-26.6-52.1-15.9-5 2.9-13.3 11.3-59.5 59.7l-7.5 7.8-6 .4-5.9.3L827 167c-5.8-5.9-20.1-20.6-31.7-32.7-23.4-24.2-28.1-27.7-39-29.1-23.8-3.1-43.6 14.8-42.7 38.4.4 12.3 3.6 17.9 19.9 34.9 5.8 6 10.5 11.3 10.5 11.7 0 .3-3 1.6-6.7 2.8-15.6 5.1-35.2 14.5-49.4 23.6-22.8 14.6-47.9 41.2-60.6 64.4-6.6 11.9-12.5 30.1-13.9 42.4-.9 8.4-1.2 40.4-.4 44.9.5 2.3 1 6 1.3 8.2 3.1 22.4 13.4 45.4 28.2 63l4.3 5-5.9 8.9c-3.2 4.8-6 9.3-6.2 9.9-.2.7-15.8-9-35.5-22.2L564 417.7l-.1-4.6c0-2.5-.2-14.5-.4-26.6-.2-12.1-.6-45.2-1-73.5-1-77.9-1.3-93.2-2-93.9-.7-.6-56.1-57.1-80.6-82.1C347.2 1.6 357.7 11.9 347.9 7.2c-5.3-2.6-10.6-4.3-14.4-4.8-3.3-.3-6.7-.7-7.5-.9-.8-.1-4.6.4-8.5 1z"/></svg>