# vtk DataFile Version 3.0
EyeWire II other pin, colored, tip origin, 2um, nm units
ASCII
DATASET POLYDATA
POINTS 273 float
82 -1730 -436
0 -1636 -655
-77 -1726 -440
82 -1730 -436
3 -1984 -6
565 -1640 -315
82 -1730 -436
-77 -1726 -440
3 -1984 -6
82 -1730 -436
565 -1640 -315
0 -1636 -655
565 -1640 309
-3 -1628 656
-3 -1636 656
565 -1640 309
569 -1644 -313
569 -1636 -313
565 -1640 309
-1 -16 2
565 -1636 -313
565 -1640 309
565 -1636 -313
565 -1640 -315
565 -1640 309
-3 -1636 656
-1 -16 2
565 -1640 309
569 -1636 -313
1 -12 0
565 -1640 309
565 -1640 307
-3 -1628 656
565 -1640 309
1 -12 0
-1 -1632 652
565 -1640 309
4 -1984 -2
569 -1644 -313
565 -1640 309
-3 -1636 652
4 -1984 -2
565 -1640 309
-1 -1632 652
-3 -1636 652
-558 -1640 -309
0 -1636 -655
2 -1636 -655
-558 -1640 -309
2 -1636 -655
-562 -1640 -309
-558 -1640 -309
3 -1984 -6
-77 -1726 -440
-558 -1640 -309
-77 -1726 -440
0 -1636 -655
-558 -1640 -309
-558 -1640 307
3 -1984 -6
-558 -1640 -309
-562 -1640 -309
-558 -1640 307
0 -1636 -655
565 -1640 -315
2 -1636 -655
565 -1648 311
569 -1640 313
0 -1640 656
565 -1648 311
1 -2000 -2
569 -1644 -315
565 -1648 311
569 -1644 -315
569 -1640 -315
565 -1648 311
0 -1640 656
1 -2000 -2
565 -1648 311
569 -1640 -315
569 -1640 313
3 -1628 -655
569 -1636 -315
569 -1640 -315
3 -1628 -655
0 0 0
569 -1636 -315
3 -1628 -655
3 -1636 -659
-566 -1632 -315
3 -1628 -655
-566 -1632 -315
0 0 0
3 -1628 -655
569 -1640 -315
3 -1636 -659
-562 -1640 305
-3 -1628 656
-1 -1632 656
-562 -1640 305
-558 -1636 307
-3 -1628 656
-562 -1640 305
-562 -1636 -309
-558 -1636 307
-562 -1640 305
-1 -1632 656
-558 -1640 307
-562 -1640 305
-558 -1640 307
-562 -1640 -309
-562 -1640 305
-562 -1640 -309
-562 -1636 -309
2 -1636 -655
565 -1636 -313
1 -1632 -659
2 -1636 -655
1 -12 0
569 -1636 -313
2 -1636 -655
1 -1632 -659
-562 -1640 -309
2 -1636 -655
565 -1640 -315
565 -1636 -313
3 -1984 -6
-1 -1632 656
565 -1640 307
3 -1984 -6
-558 -1640 307
-1 -1632 656
3 -1984 -6
565 -1640 307
565 -1640 -315
-3 -1628 656
-558 -1636 307
-3 -1636 656
-3 -1628 656
565 -1640 307
-1 -1632 656
-558 -1636 307
-1 -16 2
-3 -1636 656
-558 -1636 307
-562 -1636 -309
-1 -16 2
569 -1644 -313
4 -1984 -2
2 -1636 -655
1 -1628 660
-566 -1640 311
1 -1632 660
1 -1628 660
1 -1632 660
569 -1636 309
1 -1628 660
-562 -1636 309
-566 -1640 311
1 -1628 660
0 0 0
-562 -1636 309
1 -1628 660
569 -1636 309
0 0 0
-562 -1644 -311
2 -1636 -655
4 -1984 -2
-562 -1644 -311
4 -1984 -2
-562 -1640 309
-562 -1644 -311
-562 -1640 -309
2 -1636 -655
-566 -1640 311
-562 -1636 309
-566 -1640 -315
-566 -1640 311
-566 -1640 -315
-566 -1648 -313
-566 -1640 311
-566 -1648 -313
-562 -1648 309
-566 -1640 311
-562 -1648 309
1 -1632 660
1 -1644 -655
1 -2000 -2
-566 -1648 -313
1 -1644 -655
569 -1644 -315
1 -2000 -2
1 -1644 -655
-566 -1640 -315
3 -1636 -659
1 -1644 -655
-566 -1648 -313
-566 -1640 -315
1 -1644 -655
3 -1636 -659
569 -1644 -315
-1 -16 2
-562 -1636 -309
1 -1632 -659
-1 -16 2
1 -1632 -659
565 -1636 -313
569 -1640 313
1 -1632 660
0 -1640 656
569 -1640 313
569 -1636 -315
569 -1636 309
569 -1640 313
569 -1636 309
1 -1632 660
569 -1640 313
569 -1640 -315
569 -1636 -315
-562 -1640 309
4 -1984 -2
-3 -1636 652
-562 -1640 309
-3 -1636 652
-1 -1632 652
1 -1632 660
-562 -1648 309
0 -1640 656
569 -1636 -315
0 0 0
569 -1636 309
1 -2000 -2
-562 -1648 309
-566 -1648 -313
1 -2000 -2
0 -1640 656
-562 -1648 309
-562 -1636 309
0 0 0
-566 -1632 -315
-562 -1636 309
-566 -1632 -315
-566 -1640 -315
569 -1644 -315
3 -1636 -659
569 -1640 -315
-566 -1640 -315
-566 -1632 -315
3 -1636 -659
-562 -1636 -309
-562 -1640 -309
1 -1632 -659
-562 -1640 309
-1 -1632 652
1 -12 0
-562 -1640 309
1 -12 0
2 -1636 -655
-562 -1640 -309
-562 -1644 -311
-562 -1640 309
569 -1636 -313
569 -1644 -313
2 -1636 -655
2 -1636 -655
-562 -1640 -309
-562 -1640 309
2 -1636 -655
-562 -1640 309
2 -1636 -655
2 -1636 -655
569 -1636 -313
2 -1636 -655
POLYGONS 91 364
3 0 1 2
3 3 4 5
3 6 7 8
3 9 10 11
3 12 13 14
3 15 16 17
3 18 19 20
3 21 22 23
3 24 25 26
3 27 28 29
3 30 31 32
3 33 34 35
3 36 37 38
3 39 40 41
3 42 43 44
3 45 46 47
3 48 49 50
3 51 52 53
3 54 55 56
3 57 58 59
3 60 61 62
3 63 64 65
3 66 67 68
3 69 70 71
3 72 73 74
3 75 76 77
3 78 79 80
3 81 82 83
3 84 85 86
3 87 88 89
3 90 91 92
3 93 94 95
3 96 97 98
3 99 100 101
3 102 103 104
3 105 106 107
3 108 109 110
3 111 112 113
3 114 115 116
3 117 118 119
3 120 121 122
3 123 124 125
3 126 127 128
3 129 130 131
3 132 133 134
3 135 136 137
3 138 139 140
3 141 142 143
3 144 145 146
3 147 148 149
3 150 151 152
3 153 154 155
3 156 157 158
3 159 160 161
3 162 163 164
3 165 166 167
3 168 169 170
3 171 172 173
3 174 175 176
3 177 178 179
3 180 181 182
3 183 184 185
3 186 187 188
3 189 190 191
3 192 193 194
3 195 196 197
3 198 199 200
3 201 202 203
3 204 205 206
3 207 208 209
3 210 211 212
3 213 214 215
3 216 217 218
3 219 220 221
3 222 223 224
3 225 226 227
3 228 229 230
3 231 232 233
3 234 235 236
3 237 238 239
3 240 241 242
3 243 244 245
3 246 247 248
3 249 250 251
3 252 253 254
3 255 256 257
3 258 259 260
3 261 262 263
3 264 265 266
3 267 268 269
3 270 271 272
POINT_DATA 273
SCALARS color float 3
LOOKUP_TABLE default
0.384 0.784 0.843
0.518 0.745 0.788
0.384 0.784 0.843
0.384 0.784 0.843
0.412 0.788 0.851
0.392 0.784 0.847
0.384 0.784 0.843
0.384 0.784 0.843
0.384 0.776 0.839
0.388 0.780 0.843
0.408 0.788 0.855
0.388 0.788 0.843
0.408 0.788 0.851
0.404 0.780 0.843
0.408 0.784 0.847
0.412 0.776 0.843
0.400 0.776 0.839
0.416 0.780 0.847
0.416 0.792 0.855
0.824 0.918 0.957
0.553 0.780 0.827
0.396 0.776 0.843
0.400 0.776 0.839
0.400 0.780 0.847
0.584 0.792 0.824
0.420 0.784 0.851
0.949 0.980 0.992
0.439 0.796 0.867
0.471 0.808 0.867
0.953 0.984 0.996
0.408 0.784 0.847
0.408 0.784 0.847
0.392 0.784 0.847
0.427 0.804 0.859
0.976 0.992 1.000
0.447 0.808 0.867
0.408 0.784 0.847
0.392 0.784 0.847
0.400 0.780 0.843
0.404 0.784 0.851
0.404 0.784 0.847
0.384 0.776 0.839
0.396 0.776 0.839
0.408 0.784 0.847
0.463 0.780 0.847
0.431 0.796 0.855
0.388 0.780 0.843
0.396 0.776 0.843
0.392 0.784 0.843
0.404 0.784 0.847
0.392 0.784 0.843
0.388 0.780 0.839
0.388 0.780 0.843
0.388 0.780 0.843
0.396 0.776 0.843
0.384 0.784 0.843
0.412 0.788 0.843
0.431 0.796 0.855
0.427 0.792 0.851
0.435 0.800 0.859
0.404 0.780 0.843
0.396 0.776 0.843
0.396 0.769 0.839
0.439 0.800 0.859
0.408 0.784 0.847
0.439 0.800 0.859
0.416 0.780 0.847
0.427 0.792 0.859
0.408 0.788 0.855
0.439 0.804 0.871
0.384 0.776 0.839
0.396 0.761 0.827
0.859 1.000 1.000
0.424 0.784 0.843
0.404 0.780 0.843
0.529 0.733 0.784
0.431 0.784 0.827
0.384 0.773 0.847
0.420 0.784 0.851
0.392 0.784 0.843
0.424 0.784 0.843
0.604 0.843 0.914
0.439 0.788 0.851
0.420 0.784 0.851
0.459 0.800 0.867
0.914 0.965 0.988
0.498 0.800 0.871
0.439 0.800 0.859
0.392 0.788 0.835
0.412 0.776 0.835
0.463 0.800 0.859
0.498 0.776 0.847
0.855 0.933 0.961
0.435 0.800 0.859
0.384 0.784 0.843
0.380 0.773 0.831
0.384 0.784 0.843
0.420 0.800 0.863
0.392 0.788 0.859
0.412 0.776 0.843
0.416 0.773 0.847
0.384 0.784 0.843
0.396 0.776 0.843
0.388 0.780 0.839
0.404 0.776 0.847
0.424 0.788 0.855
0.404 0.784 0.851
0.400 0.792 0.851
0.400 0.780 0.847
0.400 0.780 0.843
0.384 0.784 0.843
0.420 0.780 0.839
0.416 0.780 0.839
0.404 0.780 0.843
0.400 0.792 0.855
0.384 0.784 0.843
0.404 0.784 0.847
0.412 0.788 0.851
0.878 0.984 1.000
0.573 0.776 0.827
0.412 0.792 0.859
0.416 0.788 0.859
0.404 0.784 0.847
0.376 0.776 0.831
0.412 0.788 0.851
0.408 0.788 0.851
0.396 0.788 0.851
0.408 0.784 0.847
0.435 0.796 0.855
0.388 0.780 0.843
0.427 0.776 0.847
0.400 0.792 0.855
0.388 0.780 0.843
0.412 0.784 0.855
0.380 0.780 0.839
0.416 0.792 0.855
0.427 0.792 0.859
0.388 0.804 0.855
0.412 0.788 0.851
0.408 0.784 0.847
0.408 0.784 0.847
0.435 0.800 0.867
0.929 0.973 0.988
0.412 0.788 0.851
0.404 0.784 0.851
0.471 0.796 0.859
0.929 0.973 0.988
0.404 0.788 0.839
0.396 0.776 0.843
0.384 0.776 0.835
0.435 0.800 0.867
0.388 0.780 0.843
0.416 0.796 0.863
0.435 0.792 0.863
0.424 0.788 0.847
0.396 0.776 0.839
0.424 0.788 0.855
0.447 0.792 0.847
0.435 0.784 0.855
0.431 0.808 0.871
0.796 0.980 1.000
0.447 0.796 0.859
0.439 0.800 0.859
0.451 0.788 0.847
0.941 0.961 0.984
0.494 0.745 0.784
0.384 0.776 0.835
0.388 0.780 0.843
0.388 0.780 0.843
0.388 0.780 0.843
0.404 0.776 0.847
0.408 0.784 0.847
0.404 0.780 0.843
0.380 0.780 0.839
0.424 0.784 0.843
0.447 0.788 0.855
0.388 0.780 0.839
0.412 0.769 0.843
0.412 0.769 0.839
0.396 0.773 0.835
0.420 0.784 0.851
0.914 0.988 1.000
0.494 0.820 0.882
0.443 0.792 0.847
0.400 0.776 0.839
0.427 0.792 0.851
0.365 0.773 0.824
0.396 0.776 0.851
0.412 0.769 0.839
0.373 0.773 0.827
0.408 0.765 0.835
0.396 0.776 0.851
0.384 0.776 0.839
0.400 0.776 0.839
0.380 0.773 0.831
0.396 0.788 0.851
0.400 0.776 0.839
0.400 0.776 0.831
0.392 0.757 0.824
0.388 0.769 0.831
0.396 0.776 0.843
0.871 1.000 1.000
0.400 0.792 0.855
0.439 0.800 0.859
0.902 0.953 0.988
0.498 0.851 0.894
0.431 0.796 0.867
0.404 0.780 0.843
0.412 0.792 0.855
0.408 0.788 0.851
0.420 0.784 0.851
0.420 0.780 0.839
0.427 0.788 0.847
0.435 0.784 0.839
0.451 0.788 0.847
0.427 0.792 0.859
0.424 0.780 0.851
0.404 0.780 0.843
0.412 0.776 0.843
0.396 0.776 0.843
0.412 0.773 0.831
0.404 0.784 0.847
0.965 0.984 1.000
0.420 0.796 0.859
0.427 0.792 0.859
0.412 0.792 0.855
0.408 0.780 0.851
0.412 0.788 0.851
0.490 0.800 0.867
0.937 0.973 0.992
0.455 0.796 0.863
0.396 0.776 0.843
0.404 0.784 0.851
0.400 0.745 0.800
0.867 1.000 1.000
0.412 0.788 0.843
0.404 0.776 0.847
0.455 0.792 0.851
0.827 0.984 1.000
0.471 0.773 0.851
0.416 0.792 0.855
0.420 0.780 0.839
0.404 0.780 0.843
0.396 0.780 0.831
0.384 0.784 0.843
0.439 0.800 0.859
0.400 0.792 0.851
0.439 0.788 0.843
0.408 0.788 0.851
0.404 0.784 0.847
0.396 0.788 0.851
0.408 0.784 0.847
0.439 0.788 0.859
0.455 0.804 0.867
0.918 1.000 1.000
0.443 0.792 0.855
0.827 1.000 1.000
0.427 0.792 0.851
0.384 0.784 0.839
0.388 0.780 0.839
0.412 0.784 0.855
0.408 0.784 0.847
0.408 0.784 0.847
0.439 0.800 0.859
0.384 0.784 0.843
0.388 0.780 0.839
0.416 0.780 0.847
0.439 0.788 0.851
0.647 0.867 0.925
0.439 0.788 0.851
0.439 0.800 0.859
0.408 0.784 0.847
0.439 0.800 0.859