# vtk DataFile Version 3.0
EyeWire II scout pin, colored, tip origin, 2um, nm units
ASCII
DATASET POLYDATA
POINTS 520 float
-401 -1465 -272
-393 -1451 -238
-399 -1451 -135
-387 -1488 -2
-389 -1471 37
-410 -1403 -340
-398 -1399 -274
-422 -1392 -210
-416 -1418 -172
-430 -1417 -69
-417 -1398 -26
-397 -1371 62
-403 -1391 146
-392 -1378 208
-392 -1417 259
-394 -1410 328
-431 -1339 -423
-410 -1353 -347
-389 -1357 -302
-411 -1358 -186
-406 -1360 -146
-397 -1361 -89
-407 -1361 -14
-424 -1356 59
-413 -1361 153
-423 -1359 293
-385 -1362 332
-425 -1331 431
-399 -1233 -46
-396 -1233 158
-409 -1231 219
-400 -1180 -44
-393 -1180 35
-390 -1209 251
-375 -1770 3
-377 -1771 37
-373 -1518 -285
-325 -1540 -33
-338 -1513 162
-345 -1516 208
-360 -1507 246
-359 -1466 -333
-348 -1459 -277
-336 -1457 -209
-354 -1495 -143
-352 -1453 -59
-360 -1458 21
-362 -1466 60
-335 -1445 144
-337 -1484 208
-367 -1391 -400
-342 -1407 -371
-362 -1415 -300
-350 -1412 -203
-359 -1411 5
-342 -1413 54
-337 -1408 151
-343 -1419 203
-383 -1424 298
-337 -1415 337
-379 -1353 -400
-321 -1364 351
-373 -1163 50
-376 -1173 146
-372 -1142 -311
-354 -1114 -56
-374 -1134 -14
-362 -1135 71
-377 -1154 187
-327 -1019 -49
-342 -972 -107
-365 -969 -44
-355 -992 -25
-341 -898 -160
-348 -882 -59
-352 -938 4
-322 -839 -152
-334 -863 -81
-329 -849 -32
-291 -1732 7
-282 -1685 5
-275 -1670 37
-282 -1575 -117
-286 -1596 18
-275 -1544 -113
-265 -1525 -77
-273 -1544 11
-287 -1573 45
-279 -1540 116
-315 -1518 177
-291 -1448 -298
-296 -1456 -208
-301 -1459 -124
-267 -1444 -4
-272 -1447 117
-289 -1458 218
-269 -1407 -409
-272 -1400 -359
-278 -1412 -283
-296 -1424 -224
-284 -1433 -138
-284 -1431 -58
-257 -1429 44
-249 -1432 128
-288 -1421 209
-279 -1410 289
-279 -1398 348
-269 -1359 -408
-308 -971 -97
-308 -981 319
-288 -914 -162
-289 -924 -3
-264 -841 -255
-292 -838 -180
-284 -841 -132
-272 -852 -3
-278 -739 -164
-270 -779 -59
-216 -1670 20
-179 -1577 -93
-202 -1605 -12
-201 -1595 67
-206 -1518 -305
-201 -1508 -137
-207 -1552 -71
-229 -1534 7
-198 -1563 84
-220 -1547 123
-180 -1513 189
-233 -1450 -333
-222 -1439 -306
-197 -1466 -131
-200 -1474 -82
-176 -1484 21
-183 -1473 83
-219 -1489 139
-218 -1471 210
-221 -1448 266
-210 -1397 -420
-211 -1420 -351
-241 -1428 -278
-210 -1429 -51
-202 -1432 -12
-219 -1431 75
-209 -1432 157
-207 -1427 215
-220 -1427 289
-215 -1402 364
-202 -1332 -423
-199 -1217 -441
-233 -765 -24
-209 -683 -125
-216 -711 -71
-176 -516 13
-141 -1716 -36
-114 -1737 77
-141 -1685 -75
-126 -1580 -123
-163 -1583 -81
-164 -1578 75
-117 -1585 180
-136 -1506 -201
-118 -1559 -140
-143 -1520 -90
-171 -1543 11
-157 -1528 58
-134 -1551 131
-125 -1541 224
-137 -1542 292
-142 -1511 339
-133 -1479 -185
-137 -1467 -150
-134 -1465 -85
-165 -1465 -7
-155 -1460 64
-142 -1467 126
-132 -1485 212
-131 -1475 296
-153 -1388 -423
-147 -1414 -356
-142 -1428 -176
-108 -1426 -148
-121 -1425 -58
-126 -1425 51
-142 -1434 169
-139 -1430 192
-133 -1428 290
-164 -1423 359
-157 -1380 388
-157 -1341 -428
-166 -1233 -444
-146 -1213 -433
-124 -767 -276
-148 -740 -229
-151 -727 -245
-152 -714 -226
-166 -544 -2
-173 -565 183
-159 -523 -157
-151 -496 -42
-169 -490 -21
-37 -1948 7
-43 -1756 -112
-87 -1762 -77
-94 -1774 -23
-73 -1724 137
-87 -1696 -136
-67 -1669 171
-63 -1590 -155
-104 -1578 157
-66 -1584 204
-72 -1540 -139
-72 -1510 163
-62 -1556 220
-76 -1547 267
-81 -1531 329
-79 -1443 -373
-39 -1448 -276
-83 -1476 -220
-80 -1473 -138
-83 -1471 145
-72 -1467 221
-84 -1475 271
-66 -1464 325
-78 -1397 -412
-89 -1425 -234
-62 -1427 -123
-71 -1429 133
-91 -1434 242
-63 -1427 278
-61 -1423 371
-58 -1381 430
-85 -786 -277
-68 -795 -242
-41 -658 -198
-16 -2000 9
11 -1974 -3
-0 -1968 45
-4 -1910 10
9 -1813 2
-20 -1818 36
-4 -1751 -113
-31 -1781 -75
5 -1759 121
-27 -1692 -151
3 -1711 166
31 -1656 188
10 -1664 274
11 -1672 329
-15 -1585 -189
-9 -1593 -167
29 -1581 227
20 -1612 283
8 -1608 365
8 -1599 421
2 -1507 -244
3 -1533 -162
13 -1555 191
7 -1547 262
12 -1448 -391
-25 -1444 -332
-9 -1456 -300
-8 -1483 -235
14 -1459 -155
1 -1444 157
-1 -1462 196
-23 -1456 278
12 -1447 344
-8 -1387 -401
-15 -1426 -338
-26 -1425 -299
1 -1429 -203
11 -1426 -138
12 -1427 296
21 -1419 377
-3 -1401 421
-2 -769 -265
4 -746 -224
-10 -680 -220
-3 -492 -154
1 -408 -145
12 -372 -123
0 0 0
90 -1752 -65
71 -1782 -5
88 -1720 133
68 -1669 293
57 -1658 340
64 -1583 -154
88 -1578 198
67 -1620 281
44 -1628 333
67 -1603 408
95 -1600 467
44 -1541 -217
79 -1542 -137
83 -1561 179
70 -1526 281
67 -1552 352
52 -1515 406
93 -1563 476
88 -1440 -397
70 -1451 -338
64 -1451 -279
72 -1471 -209
85 -1471 -137
81 -1471 155
64 -1485 184
71 -1479 282
68 -1474 357
78 -1472 411
66 -1379 -395
85 -1419 -324
79 -1427 -248
60 -1431 145
67 -1432 225
38 -1433 310
75 -1425 354
72 -1383 412
90 -1083 -354
90 -960 -321
76 -898 -289
88 -262 -80
140 -1792 -69
156 -1815 -13
168 -1754 -87
159 -1757 -32
126 -1744 42
111 -1677 -118
163 -1694 -13
129 -1584 -178
137 -1581 -142
161 -1580 -87
151 -1604 126
130 -1599 356
139 -1608 429
146 -1587 469
125 -1530 -112
165 -1554 -82
149 -1549 131
163 -1506 199
144 -1569 298
126 -1539 360
141 -1539 416
133 -1563 485
137 -1487 -361
117 -1477 -254
138 -1480 -197
139 -1493 -130
153 -1478 -63
162 -1449 -12
159 -1460 67
130 -1464 130
150 -1475 218
140 -1477 280
142 -1476 358
131 -1476 417
157 -1369 -418
120 -1422 -267
168 -1424 -202
133 -1432 -151
107 -1425 -77
156 -1426 28
140 -1431 129
141 -1428 208
130 -1429 260
147 -1427 352
155 -1391 422
165 -1090 -348
135 -1055 -365
135 -981 -322
160 -919 -290
190 -1789 -45
204 -1788 11
230 -1754 -13
241 -1627 -123
208 -1593 -69
231 -1591 5
230 -1593 52
204 -1585 123
198 -1584 360
193 -1600 427
197 -1597 469
219 -1551 -108
219 -1548 -55
212 -1547 -5
210 -1554 60
234 -1540 131
189 -1520 285
186 -1567 366
204 -1556 434
186 -1569 497
215 -1437 -359
217 -1443 -287
227 -1439 -208
206 -1466 -131
212 -1458 -76
199 -1452 -8
213 -1458 89
179 -1454 140
212 -1462 222
196 -1468 283
206 -1468 358
207 -1465 413
236 -1377 -398
209 -1414 -339
205 -1414 -285
230 -1428 -208
233 -1428 -151
184 -1429 -100
210 -1428 -6
225 -1429 44
217 -1429 121
199 -1428 187
180 -1429 265
204 -1412 371
222 -1383 408
234 -747 254
309 -1804 -493
301 -1787 -432
307 -1818 -331
303 -1689 -310
278 -1697 -106
296 -1668 -77
288 -1677 -24
286 -1627 -186
282 -1605 -144
293 -1620 -86
292 -1625 -9
247 -1580 404
300 -1546 -208
274 -1533 -122
281 -1545 -76
268 -1529 74
275 -1538 117
255 -1507 272
266 -1438 -328
297 -1445 -290
275 -1457 -219
281 -1469 -145
285 -1482 -72
282 -1474 -1
266 -1463 48
268 -1450 144
307 -1446 186
265 -1483 287
266 -1473 340
293 -1397 -342
280 -1412 -285
277 -1421 -233
282 -1431 -123
298 -1434 -73
267 -1429 4
254 -1432 67
261 -1433 147
280 -1420 207
262 -1409 274
274 -1425 322
269 -1399 399
268 -1355 451
270 -838 -261
329 -1814 -237
321 -1730 -481
320 -1705 -421
335 -1672 -242
332 -1667 -135
357 -1672 -84
353 -1668 -14
330 -1628 -194
364 -1600 -139
343 -1612 -79
329 -1615 -3
349 -1555 -270
333 -1572 -226
337 -1531 -134
345 -1534 -81
329 -1546 -15
316 -1563 77
356 -1478 -138
351 -1469 -56
352 -1448 4
347 -1449 86
335 -1447 131
325 -1460 240
336 -1453 323
342 -1407 -340
340 -1397 -282
328 -1427 -139
348 -1414 -61
348 -1405 6
350 -1398 77
337 -1415 152
341 -1425 201
372 -1371 292
325 -1422 365
331 -1363 -358
356 -1365 343
343 -1059 136
325 -1001 148
340 -1012 183
410 -1656 -101
393 -1651 -28
393 -1611 -112
397 -1621 -76
391 -1545 -192
393 -1511 -74
404 -1485 -118
393 -1485 -51
402 -1503 -22
413 -1391 -267
393 -1412 -221
390 -1366 -155
387 -1369 -70
390 -1367 34
387 -1366 129
385 -1422 215
416 -1324 -398
416 -1354 -263
416 -1357 116
408 -1324 437
POLYGONS 1286 5144
3 8 2 9
3 16 19 23
3 21 22 23
3 16 17 19
3 23 20 21
3 23 25 62
3 25 23 24
3 19 18 7
3 25 24 12
3 20 23 19
3 16 60 17
3 9 10 22
3 9 22 21
3 12 24 23
3 8 9 20
3 16 23 64
3 25 12 13
3 25 26 27
3 20 9 21
3 23 22 11
3 10 9 2
3 25 29 62
3 7 18 6
3 19 8 20
3 10 54 22
3 17 5 18
3 68 30 33
3 31 28 32
3 19 17 18
3 62 28 23
3 63 30 68
3 8 19 53
3 25 30 29
3 5 6 18
3 30 63 29
3 10 2 45
3 33 30 25
3 17 51 5
3 14 15 25
3 64 23 28
3 7 6 53
3 15 26 25
3 25 27 33
3 11 22 54
3 32 28 62
3 62 29 63
3 31 32 66
3 8 53 2
3 0 41 36
3 14 58 15
3 13 12 56
3 23 54 12
3 19 7 53
3 11 54 23
3 25 13 57
3 25 57 14
3 1 42 0
3 31 66 65
3 6 5 41
3 46 47 54
3 16 148 60
3 17 60 51
3 54 10 45
3 0 42 41
3 6 41 52
3 63 67 62
3 32 62 67
3 1 43 42
3 2 44 45
3 27 26 61
3 60 50 51
3 51 41 5
3 46 4 47
3 12 54 56
3 13 56 14
3 15 58 59
3 32 67 66
3 54 55 56
3 53 6 52
3 31 65 28
3 4 46 55
3 0 42 52
3 0 52 42
3 16 64 112
3 4 55 47
3 1 0 43
3 60 107 50
3 68 33 63
3 14 57 13
3 54 47 55
3 56 57 14
3 0 36 43
3 16 112 193
3 67 63 109
3 55 47 46
3 96 51 50
3 60 148 107
3 54 45 101
3 71 72 75
3 28 65 64
3 72 71 69
3 71 75 74
3 15 59 26
3 77 70 74
3 77 73 70
3 47 48 46
3 2 43 44
3 74 108 71
3 39 49 38
3 58 57 95
3 48 94 46
3 49 40 57
3 66 67 109
3 66 109 65
3 2 53 43
3 52 98 53
3 36 41 42
3 107 96 50
3 40 49 57
3 52 41 97
3 26 59 61
3 58 95 105
3 47 94 48
3 71 108 69
3 47 46 94
3 77 76 73
3 35 34 79
3 42 90 41
3 45 44 92
3 39 38 89
3 27 109 33
3 73 76 110
3 75 111 74
3 65 112 64
3 53 98 99
3 109 69 65
3 92 46 45
3 44 43 92
3 36 42 43
3 86 87 37
3 46 94 47
3 61 106 27
3 53 99 43
3 34 79 80
3 63 33 109
3 37 87 88
3 42 43 91
3 34 35 79
3 72 69 75
3 52 97 98
3 58 105 59
3 49 39 89
3 65 69 108
3 97 41 51
3 47 94 46
3 45 46 92
3 76 77 114
3 37 88 84
3 193 148 16
3 43 42 91
3 77 78 114
3 37 85 86
3 38 49 89
3 57 56 104
3 75 69 111
3 37 84 85
3 70 73 110
3 34 80 79
3 74 70 77
3 43 91 99
3 53 43 99
3 48 95 94
3 43 99 100
3 99 91 53
3 45 92 100
3 27 231 109
3 45 100 101
3 61 59 106
3 112 65 110
3 43 99 90
3 90 42 41
3 65 108 110
3 74 111 108
3 57 104 95
3 83 86 80
3 69 109 111
3 106 59 105
3 43 91 92
3 51 96 97
3 76 113 110
3 55 54 102
3 78 76 114
3 98 90 99
3 70 110 77
3 78 77 115
3 55 102 94
3 55 94 56
3 78 117 76
3 87 83 80
3 80 83 81
3 95 104 105
3 91 99 53
3 86 83 80
3 80 81 87
3 53 99 100
3 53 100 99
3 87 81 83
3 56 94 104
3 78 115 117
3 43 90 91
3 77 110 115
3 101 102 54
3 80 79 118
3 108 115 110
3 113 114 110
3 76 116 113
3 111 109 115
3 111 115 108
3 110 114 112
3 79 80 118
3 94 103 104
3 83 86 80
3 97 90 98
3 100 99 140
3 88 87 127
3 80 86 83
3 117 115 150
3 113 151 114
3 102 143 94
3 99 91 130
3 88 86 84
3 98 140 99
3 86 85 125
3 104 103 144
3 113 116 151
3 84 86 85
3 76 117 116
3 90 130 91
3 85 101 132
3 102 93 86
3 86 93 125
3 106 105 146
3 84 85 124
3 97 96 139
3 85 132 124
3 97 129 90
3 104 137 146
3 130 140 98
3 98 99 130
3 135 144 103
3 88 127 125
3 90 129 130
3 88 94 127
3 117 151 116
3 106 147 27
3 102 101 142
3 117 150 151
3 107 148 96
3 86 125 102
3 146 104 145
3 140 130 129
3 101 141 142
3 106 146 147
3 140 129 139
3 103 144 135
3 86 125 87
3 115 109 150
3 101 85 132
3 85 124 132
3 85 125 124
3 84 124 85
3 104 144 145
3 93 102 125
3 97 139 129
3 80 118 120
3 114 151 112
3 151 150 152
3 94 143 103
3 88 127 166
3 139 96 138
3 125 127 124
3 96 148 138
3 231 27 147
3 137 95 136
3 129 130 139
3 118 80 120
3 127 88 166
3 127 166 124
3 140 179 100
3 109 197 150
3 85 124 125
3 132 100 141
3 125 127 87
3 100 171 141
3 124 163 84
3 150 196 152
3 179 225 100
3 123 132 131
3 127 125 126
3 141 173 142
3 148 191 138
3 151 198 112
3 102 134 143
3 148 149 191
3 152 196 151
3 102 142 134
3 121 125 120
3 125 121 126
3 197 109 231
3 145 144 136
3 136 144 135
3 139 179 140
3 143 134 103
3 120 125 119
3 130 122 139
3 135 128 127
3 82 119 124
3 151 196 198
3 124 166 163
3 136 176 145
3 134 142 173
3 137 177 136
3 135 175 134
3 134 174 143
3 136 177 222
3 125 124 119
3 121 127 126
3 139 138 179
3 145 186 146
3 150 197 196
3 135 134 176
3 141 131 132
3 143 144 134
3 147 188 231
3 144 176 135
3 141 132 173
3 103 134 144
3 144 143 175
3 143 174 175
3 163 126 124
3 132 134 133
3 141 171 131
3 163 166 126
3 147 146 187
3 196 197 199
3 100 180 171
3 134 132 173
3 124 84 163
3 193 112 195
3 120 159 121
3 138 178 179
3 124 126 164
3 159 120 158
3 148 189 149
3 134 175 133
3 118 159 158
3 158 156 118
3 137 223 177
3 196 199 198
3 120 119 158
3 134 173 174
3 138 178 148
3 112 198 279
3 121 160 127
3 132 133 172
3 161 132 123
3 138 191 178
3 123 131 161
3 133 175 174
3 126 165 164
3 176 144 184
3 131 172 132
3 147 187 188
3 173 165 134
3 149 190 191
3 173 132 172
3 146 186 187
3 112 279 195
3 100 225 180
3 176 184 185
3 159 118 155
3 118 156 155
3 193 233 148
3 135 176 175
3 191 189 178
3 121 159 209
3 173 164 165
3 164 173 124
3 153 199 200
3 173 132 124
3 132 161 171
3 173 183 174
3 165 166 134
3 176 185 145
3 137 136 223
3 155 156 154
3 165 126 166
3 172 170 132
3 158 157 156
3 131 171 172
3 171 163 132
3 149 148 189
3 121 209 160
3 176 134 175
3 198 199 282
3 149 189 191
3 132 170 131
3 161 131 218
3 158 119 157
3 218 131 170
3 132 163 124
3 155 207 159
3 127 167 166
3 188 187 231
3 146 186 228
3 156 203 154
3 159 207 209
3 134 166 175
3 163 171 219
3 193 192 233
3 168 167 214
3 167 168 214
3 160 167 127
3 186 146 229
3 171 180 181
3 145 185 228
3 228 229 146
3 186 145 228
3 193 195 233
3 119 162 157
3 185 221 176
3 168 169 177
3 124 163 162
3 173 172 182
3 178 189 224
3 206 203 156
3 163 219 162
3 185 221 228
3 157 206 156
3 178 224 179
3 181 172 171
3 154 204 155
3 172 171 182
3 172 133 219
3 155 205 207
3 173 182 183
3 228 221 176
3 144 175 184
3 180 225 170
3 154 203 204
3 198 280 279
3 170 225 218
3 168 177 214
3 177 169 215
3 187 230 231
3 206 157 208
3 169 168 215
3 187 186 230
3 170 172 218
3 133 175 220
3 182 171 172
3 175 176 220
3 192 193 233
3 170 219 181
3 170 181 180
3 222 177 223
3 221 184 175
3 199 197 282
3 181 219 172
3 177 215 214
3 214 167 213
3 175 220 221
3 136 308 223
3 218 172 219
3 228 176 221
3 170 218 219
3 204 240 155
3 182 226 183
3 175 174 183
3 136 222 308
3 160 210 167
3 228 222 229
3 167 214 213
3 176 175 212
3 218 225 217
3 192 232 233
3 176 221 308
3 176 212 221
3 166 212 175
3 262 171 161
3 216 179 224
3 175 183 227
3 186 229 230
3 168 214 215
3 219 211 162
3 217 261 218
3 171 304 219
3 195 234 233
3 219 226 172
3 161 218 262
3 176 221 220
3 232 192 233
3 210 213 167
3 162 208 157
3 160 209 210
3 220 175 227
3 205 155 240
3 182 172 226
3 204 242 240
3 228 221 222
3 204 203 242
3 189 357 224
3 216 269 179
3 162 249 208
3 225 179 270
3 212 166 167
3 282 197 231
3 279 234 195
3 171 262 304
3 270 179 269
3 207 210 209
3 240 242 239
3 203 206 202
3 198 282 280
3 220 221 265
3 133 263 219
3 222 176 308
3 256 211 219
3 227 221 220
3 211 256 162
3 213 214 258
3 212 167 257
3 219 304 256
3 148 357 189
3 222 221 229
3 249 162 256
3 227 183 226
3 225 270 217
3 217 260 261
3 216 224 269
3 227 226 362
3 208 250 206
3 233 234 278
3 222 223 266
3 221 227 264
3 218 261 262
3 205 245 207
3 226 219 272
3 206 244 241
3 222 308 176
3 207 246 210
3 221 264 229
3 231 230 275
3 276 233 278
3 203 202 242
3 260 270 261
3 206 241 202
3 208 249 250
3 205 240 243
3 221 212 265
3 219 218 271
3 201 235 237
3 212 257 265
3 260 269 224
3 230 267 275
3 245 205 243
3 271 263 219
3 218 262 271
3 223 267 266
3 201 236 235
3 213 257 167
3 201 238 236
3 240 239 243
3 224 357 268
3 202 241 242
3 219 263 272
3 270 261 217
3 230 274 267
3 222 266 308
3 230 229 274
3 220 265 133
3 265 257 307
3 214 213 252
3 362 264 227
3 229 264 265
3 265 221 353
3 214 252 258
3 234 279 278
3 263 133 305
3 207 245 246
3 238 201 237
3 275 267 274
3 229 273 274
3 233 276 277
3 226 272 362
3 250 244 206
3 254 253 292
3 260 224 259
3 223 308 267
3 247 248 252
3 258 297 214
3 249 256 294
3 176 308 221
3 213 258 251
3 224 268 259
3 210 246 289
3 274 273 267
3 273 229 315
3 221 265 307
3 277 276 278
3 275 318 231
3 213 251 289
3 362 272 361
3 219 263 347
3 261 255 262
3 221 307 308
3 271 272 263
3 277 371 233
3 251 210 289
3 237 235 236
3 279 280 281
3 242 241 239
3 231 318 459
3 253 254 292
3 274 317 275
3 219 347 218
3 273 316 267
3 264 307 265
3 272 271 304
3 250 249 288
3 266 267 308
3 248 253 291
3 261 303 255
3 274 267 317
3 252 290 247
3 252 251 258
3 253 248 287
3 269 260 270
3 277 278 371
3 229 265 315
3 253 309 297
3 252 253 291
3 294 256 331
3 249 294 288
3 268 357 311
3 267 316 317
3 253 298 309
3 247 252 290
3 253 292 298
3 261 303 302
3 317 318 275
3 261 270 303
3 253 252 298
3 252 291 298
3 347 263 305
3 267 309 308
3 247 287 248
3 280 282 281
3 253 297 298
3 252 248 290
3 291 287 248
3 253 287 292
3 291 290 287
3 257 296 307
3 265 306 133
3 265 353 306
3 268 311 259
3 272 304 305
3 271 262 304
3 299 309 298
3 238 237 236
3 282 322 281
3 248 287 290
3 255 262 347
3 362 314 264
3 218 347 262
3 247 286 287
3 291 253 298
3 309 299 310
3 265 307 315
3 244 250 328
3 259 311 301
3 264 314 307
3 213 289 257
3 273 315 316
3 247 290 286
3 297 309 308
3 260 259 270
3 261 302 303
3 243 285 245
3 255 304 262
3 241 283 239
3 272 305 361
3 255 303 304
3 259 302 270
3 282 231 417
3 298 292 291
3 250 288 328
3 316 315 317
3 307 314 306
3 241 244 328
3 308 309 317
3 233 371 321
3 239 283 284
3 231 459 417
3 291 292 287
3 270 313 303
3 305 133 348
3 233 370 148
3 302 312 270
3 239 284 327
3 245 285 246
3 299 298 310
3 459 318 367
3 304 305 256
3 133 306 352
3 270 312 313
3 294 331 288
3 292 293 300
3 278 322 371
3 307 306 315
3 303 313 304
3 290 298 297
3 233 321 370
3 259 301 302
3 327 243 239
3 246 333 289
3 297 308 298
3 246 285 333
3 294 255 304
3 284 329 327
3 241 328 283
3 312 358 313
3 305 304 348
3 255 347 304
3 300 293 344
3 311 357 301
3 298 341 297
3 148 370 319
3 221 308 353
3 321 320 370
3 243 327 285
3 279 322 278
3 295 305 256
3 291 286 290
3 341 290 297
3 304 313 347
3 296 257 289
3 313 303 347
3 305 304 360
3 317 315 365
3 284 283 329
3 304 347 303
3 298 308 309
3 298 309 342
3 361 305 349
3 292 300 343
3 314 352 306
3 306 353 352
3 305 337 256
3 303 346 304
3 312 302 358
3 290 334 298
3 310 298 356
3 282 417 322
3 302 301 345
3 320 321 370
3 292 343 335
3 317 318 308
3 315 364 365
3 296 339 307
3 302 345 358
3 317 309 318
3 335 292 334
3 293 292 335
3 313 358 303
3 304 346 347
3 319 370 369
3 306 352 315
3 346 303 347
3 309 308 318
3 318 317 366
3 133 352 351
3 133 351 349
3 309 355 342
3 352 353 399
3 309 317 356
3 362 361 350
3 298 334 342
3 310 356 317
3 298 342 341
3 285 327 333
3 305 348 347
3 279 281 322
3 305 348 337
3 314 362 352
3 298 342 356
3 367 318 366
3 321 371 370
3 309 356 355
3 337 331 256
3 364 315 352
3 337 338 331
3 293 335 336
3 313 358 406
3 358 347 303
3 350 361 349
3 288 331 332
3 334 292 335
3 304 347 360
3 292 335 343
3 354 401 308
3 305 360 349
3 331 330 288
3 358 313 406
3 288 332 328
3 301 357 345
3 341 334 290
3 283 328 329
3 317 365 366
3 352 351 363
3 133 349 348
3 148 319 368
3 348 304 347
3 293 336 344
3 343 342 355
3 348 349 347
3 319 369 368
3 288 330 331
3 335 343 344
3 352 362 351
3 365 364 414
3 356 366 355
3 342 343 356
3 292 343 335
3 349 337 348
3 356 367 366
3 307 399 308
3 335 344 336
3 337 349 338
3 296 289 339
3 334 380 342
3 323 324 326
3 307 339 352
3 308 340 353
3 349 360 409
3 358 345 393
3 358 393 406
3 399 307 352
3 364 353 414
3 364 413 353
3 356 343 390
3 341 380 334
3 336 391 344
3 289 333 379
3 339 289 379
3 344 343 336
3 332 329 328
3 335 334 381
3 331 383 330
3 358 359 347
3 351 398 349
3 325 323 326
3 355 402 354
3 352 363 399
3 355 354 388
3 369 370 368
3 349 395 347
3 344 390 343
3 355 366 415
3 352 398 351
3 351 399 363
3 352 399 364
3 350 410 349
3 342 380 389
3 350 349 410
3 336 343 381
3 349 362 350
3 355 415 356
3 336 381 382
3 339 386 352
3 367 356 416
3 390 344 391
3 354 401 400
3 366 365 414
3 355 388 402
3 353 340 399
3 348 347 396
3 360 359 409
3 360 347 359
3 343 390 381
3 324 323 372
3 338 349 385
3 349 397 385
3 352 386 398
3 324 373 326
3 354 402 355
3 362 349 351
3 349 409 396
3 327 329 333
3 342 389 341
3 348 395 349
3 371 460 370
3 352 399 398
3 331 338 383
3 367 416 459
3 398 399 352
3 358 407 359
3 399 413 364
3 354 400 443
3 349 350 351
3 351 350 397
3 355 402 354
3 349 396 410
3 345 405 393
3 416 356 415
3 395 397 349
3 415 366 402
3 351 397 411
3 334 335 381
3 356 403 402
3 349 398 395
3 356 390 403
3 347 395 396
3 355 356 402
3 391 336 382
3 353 413 414
3 357 405 345
3 323 325 372
3 366 414 401
3 332 333 329
3 409 359 408
3 332 376 333
3 339 387 386
3 399 412 413
3 390 391 382
3 366 401 402
3 148 368 357
3 393 405 406
3 308 399 340
3 331 330 383
3 350 410 397
3 386 397 398
3 390 380 381
3 341 389 380
3 343 355 402
3 338 385 383
3 395 398 397
3 388 354 400
3 348 396 395
3 371 322 460
3 397 386 385
3 333 376 379
3 339 379 387
3 343 402 390
3 351 398 399
3 401 400 354
3 407 358 449
3 370 460 368
3 414 455 401
3 386 383 385
3 405 357 404
3 388 435 402
3 358 406 449
3 351 411 398
3 331 384 376
3 398 412 399
3 331 383 384
3 324 374 373
3 386 387 383
3 387 379 386
3 381 390 382
3 409 408 396
3 390 402 403
3 414 413 455
3 354 443 401
3 405 404 392
3 449 406 448
3 325 326 374
3 372 374 324
3 396 393 439
3 326 373 374
3 410 452 397
3 372 325 374
3 384 379 376
3 415 402 416
3 396 395 393
3 396 408 450
3 402 435 446
3 376 377 379
3 400 435 388
3 379 384 385
3 384 383 431
3 395 394 393
3 376 379 377
3 452 410 396
3 395 407 394
3 439 395 408
3 405 448 406
3 397 452 410
3 380 429 381
3 357 368 516
3 359 407 408
3 379 377 378
3 395 439 407
3 413 412 454
3 377 379 378
3 379 385 386
3 398 454 412
3 405 392 436
3 383 387 433
3 439 393 438
3 381 429 390
3 392 404 436
3 408 395 439
3 429 380 390
3 383 433 384
3 394 438 393
3 396 439 395
3 411 410 441
3 322 417 460
3 433 411 441
3 387 398 433
3 448 405 436
3 411 410 441
3 384 431 432
3 386 385 477
3 401 455 456
3 394 407 438
3 416 402 458
3 387 443 398
3 411 453 398
3 384 477 385
3 407 439 438
3 407 450 408
3 396 440 384
3 411 442 453
3 459 519 417
3 440 432 384
3 401 457 445
3 411 433 442
3 441 410 452
3 416 458 459
3 387 434 443
3 384 433 432
3 454 455 413
3 357 516 404
3 396 432 440
3 400 444 443
3 457 446 445
3 442 441 452
3 398 443 433
3 442 452 453
3 401 444 400
3 400 401 445
3 447 404 516
3 434 433 443
3 457 402 446
3 446 435 445
3 433 441 442
3 401 456 457
3 375 426 425
3 435 400 445
3 402 446 458
3 401 443 444
3 431 440 439
3 446 402 457
3 439 430 431
3 436 437 447
3 433 434 432
3 452 396 451
3 384 476 477
3 432 476 384
3 437 448 447
3 447 436 404
3 425 427 375
3 447 448 436
3 398 453 491
3 450 407 449
3 438 478 439
3 434 387 433
3 422 423 465
3 417 497 460
3 383 432 476
3 427 423 428
3 431 383 432
3 452 451 410
3 375 427 426
3 439 440 450
3 439 487 438
3 430 474 431
3 450 440 439
3 450 449 487
3 396 450 451
3 456 455 491
3 436 448 437
3 436 437 448
3 451 489 410
3 452 410 489
3 418 419 462
3 386 477 387
3 456 491 492
3 383 476 432
3 460 516 368
3 430 478 474
3 457 456 484
3 440 431 475
3 387 477 433
3 457 484 446
3 443 491 454
3 427 469 426
3 487 449 438
3 437 430 478
3 451 488 489
3 436 447 437
3 434 476 432
3 437 472 430
3 453 452 491
3 454 491 455
3 437 478 438
3 428 470 427
3 417 497 498
3 423 424 467
3 439 478 487
3 455 491 444
3 451 450 488
3 430 472 473
3 443 481 444
3 420 463 462
3 439 440 479
3 419 418 420
3 491 452 490
3 443 482 481
3 444 492 455
3 423 467 428
3 444 491 492
3 456 483 484
3 422 466 423
3 447 486 437
3 464 420 461
3 431 478 475
3 447 448 486
3 418 462 420
3 422 465 466
3 458 496 459
3 450 487 478
3 426 468 425
3 446 494 458
3 433 477 434
3 456 492 483
3 427 423 470
3 428 471 470
3 417 519 497
3 491 455 492
3 463 421 420
3 477 476 434
3 427 425 468
3 426 469 468
3 447 495 485
3 449 486 438
3 426 475 474
3 449 448 486
3 444 481 441
3 455 492 491
3 420 421 461
3 431 474 478
3 421 464 461
3 437 486 448
3 461 473 464
3 498 497 417
3 438 486 437
3 475 441 440
3 452 489 490
3 497 499 498
3 470 475 427
3 439 479 478
3 475 426 470
3 450 487 488
3 441 480 479
3 441 481 480
3 471 428 467
3 474 475 478
3 479 444 441
3 426 474 470
3 494 446 484
3 424 423 467
3 480 489 488
3 470 469 427
3 437 486 472
3 427 468 469
3 458 494 496
3 448 447 485
3 490 481 491
3 448 485 486
3 441 480 440
3 475 478 479
3 464 473 461
3 478 487 450
3 423 466 467
3 482 491 481
3 440 480 479
3 475 470 478
3 495 447 516
3 486 485 495
3 494 484 496
3 444 479 482
3 489 480 490
3 497 498 499
3 466 470 467
3 427 469 470
3 430 473 504
3 484 493 496
3 474 478 470
3 479 480 488
3 483 515 484
3 475 476 441
3 467 470 471
3 460 497 516
3 469 502 470
3 441 476 480
3 483 492 515
3 459 496 519
3 474 506 478
3 430 504 478
3 481 491 482
3 474 478 506
3 489 480 512
3 481 490 480
3 475 479 505
3 495 516 486
3 502 503 470
3 482 479 480
3 491 515 492
3 488 487 478
3 490 491 481
3 484 515 493
3 470 503 469
3 480 488 512
3 486 510 472
3 466 465 500
3 479 480 508
3 473 472 504
3 491 490 514
3 466 467 501
3 493 519 496
3 489 513 480
3 507 479 508
3 490 481 513
3 466 503 500
3 466 500 465
3 467 466 501
3 519 518 497
3 481 480 513
3 489 512 513
3 478 506 479
3 466 501 503
3 486 509 510
3 491 493 515
3 476 475 508
3 478 512 488
3 486 517 509
3 514 518 491
3 504 511 478
3 476 508 480
3 510 504 472
3 475 505 508
3 510 511 504
3 511 512 478
3 502 469 503
3 479 507 505
3 505 507 508
3 490 518 514
3 512 511 517
3 513 518 490
3 478 479 506
3 513 512 518
3 486 516 517
3 516 497 517
3 493 491 518
3 518 517 497
3 510 517 511
3 509 517 510
3 466 500 501
3 493 518 519
3 501 500 503
3 517 518 512
POINT_DATA 520
SCALARS color float 3
LOOKUP_TABLE default
0.373 0.447 0.224
0.314 0.384 0.173
0.259 0.324 0.176
0.714 0.965 1.000
0.324 0.420 0.392
0.478 0.350 0.295
0.263 0.334 0.143
0.355 0.398 0.344
0.290 0.373 0.157
0.252 0.354 0.182
0.322 0.400 0.313
0.263 0.435 0.445
0.276 0.412 0.251
0.265 0.443 0.397
0.380 0.365 0.290
0.371 0.359 0.333
0.340 0.755 0.839
0.231 0.475 0.429
0.314 0.582 0.661
0.247 0.457 0.459
0.176 0.361 0.373
0.106 0.380 0.384
0.226 0.567 0.592
0.364 0.688 0.739
0.241 0.527 0.527
0.420 0.738 0.779
0.237 0.495 0.498
0.417 0.763 0.850
0.637 0.567 0.561
0.145 0.367 0.412
0.178 0.378 0.384
0.739 0.582 0.529
0.592 0.541 0.545
0.263 0.465 0.520
0.662 0.521 0.420
0.643 0.471 0.367
0.553 0.396 0.239
0.549 0.455 0.439
0.496 0.382 0.308
0.594 0.414 0.383
0.569 0.478 0.384
0.520 0.368 0.313
0.350 0.359 0.229
0.450 0.418 0.375
0.376 0.347 0.375
0.380 0.375 0.311
0.321 0.382 0.280
0.311 0.362 0.251
0.348 0.388 0.273
0.474 0.376 0.322
0.286 0.349 0.404
0.304 0.355 0.224
0.453 0.361 0.239
0.320 0.381 0.267
0.279 0.366 0.231
0.380 0.402 0.275
0.337 0.371 0.270
0.311 0.362 0.272
0.263 0.331 0.153
0.301 0.345 0.275
0.186 0.363 0.345
0.184 0.620 0.678
0.538 0.513 0.507
0.396 0.761 0.824
0.766 0.736 0.959
0.244 0.358 0.507
0.440 0.438 0.459
0.533 0.537 0.561
0.255 0.357 0.400
0.226 0.338 0.335
0.361 0.365 0.451
0.275 0.376 0.314
0.265 0.361 0.210
0.327 0.298 0.386
0.272 0.302 0.359
0.373 0.373 0.439
0.320 0.358 0.268
0.234 0.286 0.325
0.310 0.388 0.435
0.710 0.480 0.347
0.506 0.392 0.306
0.708 0.524 0.395
0.573 0.471 0.365
0.486 0.475 0.468
0.475 0.396 0.369
0.384 0.376 0.327
0.431 0.402 0.339
0.551 0.458 0.382
0.418 0.380 0.389
0.416 0.378 0.265
0.403 0.387 0.277
0.422 0.500 0.469
0.524 0.423 0.340
0.322 0.367 0.285
0.328 0.347 0.332
0.448 0.447 0.400
0.278 0.336 0.371
0.424 0.391 0.338
0.298 0.465 0.393
0.363 0.441 0.429
0.479 0.456 0.409
0.365 0.402 0.363
0.528 0.483 0.515
0.301 0.378 0.251
0.465 0.413 0.322
0.341 0.400 0.273
0.314 0.410 0.341
0.280 0.404 0.439
0.353 0.339 0.433
0.441 0.839 0.905
0.269 0.309 0.404
0.365 0.397 0.458
0.363 0.802 0.908
0.267 0.302 0.227
0.214 0.310 0.359
0.244 0.362 0.417
0.310 0.314 0.424
0.300 0.318 0.355
0.561 0.471 0.415
0.440 0.446 0.439
0.524 0.437 0.394
0.420 0.484 0.557
0.445 0.476 0.425
0.812 0.576 0.455
0.443 0.464 0.446
0.415 0.446 0.403
0.476 0.445 0.441
0.419 0.407 0.371
0.385 0.366 0.360
0.320 0.357 0.350
0.361 0.456 0.435
0.431 0.516 0.478
0.391 0.416 0.367
0.300 0.368 0.302
0.451 0.440 0.377
0.410 0.418 0.341
0.380 0.408 0.381
0.351 0.400 0.377
0.333 0.596 0.738
0.327 0.413 0.412
0.271 0.487 0.485
0.378 0.358 0.349
0.404 0.373 0.414
0.419 0.395 0.438
0.317 0.373 0.283
0.399 0.443 0.371
0.317 0.377 0.267
0.347 0.414 0.356
0.317 0.593 0.725
0.508 0.591 0.771
0.298 0.418 0.516
0.278 0.400 0.514
0.286 0.424 0.510
0.267 0.553 0.686
0.176 0.463 0.635
0.307 0.459 0.627
0.332 0.633 0.793
0.533 0.654 0.710
0.549 0.524 0.488
0.429 0.501 0.566
0.399 0.485 0.487
0.616 0.494 0.429
0.330 0.474 0.441
0.293 0.438 0.431
0.325 0.341 0.341
0.418 0.473 0.432
0.374 0.389 0.375
0.335 0.382 0.382
0.251 0.346 0.383
0.141 0.318 0.384
0.451 0.634 0.596
0.422 0.408 0.300
0.313 0.411 0.342
0.385 0.382 0.350
0.338 0.427 0.366
0.322 0.381 0.316
0.329 0.453 0.403
0.350 0.380 0.347
0.273 0.600 0.740
0.411 0.520 0.532
0.289 0.435 0.344
0.353 0.355 0.306
0.421 0.395 0.375
0.376 0.385 0.362
0.269 0.482 0.424
0.288 0.392 0.327
0.487 0.471 0.442
0.279 0.349 0.187
0.243 0.429 0.343
0.309 0.588 0.723
0.717 0.805 0.860
0.692 0.747 0.770
0.318 0.319 0.427
0.254 0.617 0.788
0.227 0.741 0.882
0.221 0.659 0.854
0.312 0.494 0.655
0.489 0.855 0.948
0.394 0.762 0.829
0.290 0.363 0.633
0.243 0.424 0.639
0.305 0.525 0.818
0.518 0.698 0.851
0.400 0.711 0.850
0.288 0.590 0.786
0.345 0.478 0.673
0.565 0.722 0.891
0.553 0.565 0.804
0.490 0.673 0.851
0.308 0.525 0.551
0.427 0.528 0.593
0.386 0.655 0.629
0.249 0.422 0.371
0.390 0.426 0.401
0.359 0.380 0.359
0.220 0.358 0.371
0.335 0.312 0.343
0.147 0.200 0.139
0.397 0.387 0.331
0.346 0.381 0.297
0.315 0.373 0.311
0.328 0.425 0.399
0.298 0.341 0.309
0.273 0.342 0.337
0.294 0.337 0.270
0.284 0.371 0.264
0.298 0.378 0.313
0.376 0.380 0.377
0.413 0.395 0.320
0.249 0.345 0.300
0.169 0.308 0.298
0.221 0.451 0.515
0.286 0.275 0.349
0.286 0.337 0.491
0.271 0.310 0.502
0.465 0.467 0.469
0.441 0.495 0.707
0.318 0.469 0.646
0.610 0.463 0.350
0.619 0.555 0.449
0.646 0.532 0.388
0.439 0.635 0.816
0.337 0.639 0.818
0.216 0.345 0.533
0.416 0.547 0.704
0.229 0.375 0.571
0.242 0.386 0.528
0.165 0.323 0.350
0.127 0.324 0.339
0.450 0.442 0.497
0.382 0.505 0.651
0.306 0.383 0.417
0.237 0.315 0.310
0.125 0.306 0.318
0.093 0.303 0.332
0.476 0.437 0.404
0.332 0.516 0.477
0.328 0.357 0.281
0.303 0.353 0.277
0.357 0.388 0.282
0.280 0.375 0.411
0.298 0.340 0.319
0.438 0.462 0.411
0.307 0.365 0.280
0.297 0.418 0.399
0.300 0.435 0.358
0.294 0.365 0.271
0.248 0.337 0.343
0.275 0.357 0.314
0.308 0.375 0.182
0.263 0.294 0.274
0.339 0.383 0.319
0.292 0.350 0.297
0.322 0.373 0.316
0.127 0.308 0.247
0.253 0.425 0.375
0.276 0.306 0.408
0.459 0.525 0.737
0.307 0.317 0.451
0.302 0.304 0.458
0.297 0.333 0.470
0.282 0.312 0.494
0.624 0.868 0.918
0.657 0.516 0.475
0.631 0.527 0.483
0.236 0.375 0.561
0.088 0.275 0.304
0.117 0.292 0.311
0.490 0.500 0.577
0.413 0.430 0.403
0.225 0.345 0.372
0.172 0.297 0.301
0.146 0.314 0.321
0.145 0.376 0.388
0.367 0.413 0.391
0.353 0.910 0.910
0.335 0.377 0.320
0.296 0.338 0.279
0.220 0.303 0.311
0.094 0.310 0.337
0.094 0.306 0.325
0.281 0.316 0.214
0.318 0.354 0.235
0.303 0.336 0.306
0.443 0.444 0.367
0.360 0.431 0.361
0.318 0.361 0.273
0.294 0.374 0.354
0.353 0.376 0.318
0.289 0.338 0.318
0.237 0.335 0.335
0.259 0.349 0.341
0.239 0.290 0.227
0.388 0.429 0.438
0.351 0.365 0.343
0.323 0.361 0.248
0.354 0.371 0.369
0.309 0.339 0.303
0.216 0.441 0.494
0.290 0.310 0.514
0.324 0.322 0.382
0.294 0.286 0.380
0.588 0.875 0.996
0.561 0.455 0.427
0.586 0.498 0.494
0.594 0.473 0.394
0.406 0.475 0.667
0.410 0.459 0.626
0.631 0.609 0.627
0.596 0.503 0.455
0.463 0.424 0.408
0.363 0.401 0.396
0.472 0.464 0.419
0.448 0.515 0.580
0.150 0.291 0.303
0.114 0.276 0.304
0.084 0.306 0.313
0.369 0.678 0.675
0.331 0.344 0.304
0.329 0.403 0.412
0.533 0.459 0.404
0.231 0.333 0.309
0.233 0.323 0.320
0.207 0.305 0.284
0.127 0.305 0.344
0.369 0.339 0.369
0.365 0.298 0.267
0.378 0.414 0.374
0.382 0.399 0.352
0.326 0.378 0.324
0.341 0.367 0.323
0.336 0.365 0.325
0.336 0.377 0.333
0.390 0.415 0.334
0.336 0.373 0.308
0.282 0.346 0.304
0.232 0.324 0.335
0.224 0.492 0.523
0.406 0.609 0.637
0.202 0.584 0.639
0.261 0.314 0.209
0.351 0.359 0.310
0.304 0.352 0.336
0.318 0.333 0.345
0.282 0.363 0.235
0.381 0.360 0.295
0.256 0.315 0.285
0.290 0.382 0.386
0.202 0.276 0.408
0.320 0.322 0.404
0.371 0.437 0.551
0.346 0.448 0.529
0.678 0.539 0.451
0.420 0.333 0.314
0.500 0.394 0.378
0.201 0.369 0.346
0.398 0.437 0.412
0.398 0.433 0.500
0.401 0.418 0.456
0.454 0.450 0.436
0.151 0.296 0.288
0.111 0.284 0.318
0.125 0.295 0.333
0.359 0.379 0.343
0.491 0.441 0.390
0.471 0.427 0.401
0.432 0.407 0.352
0.357 0.356 0.337
0.285 0.344 0.195
0.129 0.239 0.294
0.153 0.296 0.338
0.163 0.302 0.365
0.322 0.316 0.341
0.515 0.440 0.365
0.221 0.427 0.502
0.289 0.439 0.428
0.368 0.391 0.339
0.404 0.401 0.382
0.329 0.364 0.335
0.283 0.340 0.248
0.269 0.341 0.238
0.290 0.347 0.279
0.274 0.338 0.310
0.255 0.363 0.441
0.265 0.371 0.425
0.350 0.353 0.302
0.327 0.435 0.390
0.307 0.444 0.442
0.247 0.386 0.286
0.363 0.367 0.302
0.317 0.335 0.303
0.244 0.261 0.231
0.324 0.351 0.334
0.546 0.448 0.351
0.245 0.369 0.343
0.344 0.357 0.310
0.246 0.366 0.345
0.492 0.838 0.941
0.251 0.546 0.573
0.396 0.839 0.833
0.382 0.569 0.563
0.227 0.684 0.794
0.122 0.392 0.314
0.164 0.369 0.339
0.071 0.349 0.290
0.129 0.387 0.329
0.235 0.356 0.315
0.221 0.375 0.337
0.143 0.366 0.326
0.122 0.276 0.316
0.318 0.365 0.242
0.433 0.408 0.358
0.404 0.369 0.327
0.391 0.387 0.342
0.366 0.365 0.358
0.273 0.288 0.314
0.320 0.358 0.261
0.305 0.360 0.276
0.363 0.379 0.347
0.447 0.396 0.364
0.399 0.415 0.372
0.300 0.353 0.357
0.363 0.387 0.350
0.448 0.411 0.358
0.338 0.384 0.315
0.318 0.341 0.273
0.264 0.314 0.294
0.283 0.359 0.276
0.303 0.345 0.282
0.392 0.378 0.319
0.415 0.433 0.400
0.227 0.235 0.213
0.336 0.346 0.307
0.298 0.357 0.282
0.354 0.391 0.340
0.327 0.369 0.303
0.289 0.344 0.264
0.376 0.352 0.312
0.322 0.351 0.325
0.195 0.573 0.725
0.435 0.802 0.904
0.550 0.536 0.418
0.414 0.502 0.468
0.200 0.645 0.784
0.294 0.487 0.521
0.118 0.360 0.304
0.126 0.337 0.275
0.187 0.355 0.302
0.224 0.382 0.341
0.235 0.376 0.340
0.202 0.347 0.294
0.133 0.339 0.313
0.309 0.303 0.338
0.463 0.427 0.296
0.438 0.329 0.289
0.320 0.354 0.324
0.371 0.397 0.362
0.529 0.430 0.358
0.403 0.360 0.338
0.340 0.343 0.310
0.325 0.390 0.354
0.325 0.373 0.280
0.409 0.410 0.374
0.259 0.302 0.267
0.318 0.373 0.248
0.339 0.354 0.300
0.275 0.359 0.283
0.446 0.395 0.330
0.322 0.365 0.329
0.310 0.373 0.332
0.310 0.366 0.348
0.352 0.393 0.354
0.326 0.370 0.264
0.273 0.399 0.391
0.349 0.341 0.396
0.357 0.443 0.535
0.247 0.424 0.345
0.293 0.388 0.513
0.339 0.403 0.520
0.416 0.431 0.522
0.075 0.343 0.290
0.086 0.347 0.335
0.041 0.316 0.267
0.068 0.325 0.280
0.391 0.413 0.469
0.353 0.365 0.188
0.526 0.354 0.382
0.427 0.412 0.290
0.337 0.353 0.322
0.345 0.345 0.341
0.289 0.322 0.289
0.302 0.435 0.454
0.272 0.396 0.415
0.263 0.480 0.475
0.347 0.586 0.667
0.275 0.345 0.176
0.521 0.754 0.834
0.196 0.616 0.784
0.256 0.642 0.786
0.411 0.749 0.871