# EyeWire II scout pin LOD, tip origin, 2um tall, nm units
v -401 -1465 -272
v -393 -1451 -238
v -399 -1451 -135
v -387 -1488 -2
v -389 -1471 37
v -410 -1403 -340
v -398 -1399 -274
v -422 -1392 -210
v -416 -1418 -172
v -430 -1417 -69
v -417 -1398 -26
v -397 -1371 62
v -403 -1391 146
v -392 -1378 208
v -392 -1417 259
v -394 -1410 328
v -431 -1339 -423
v -410 -1353 -347
v -389 -1357 -302
v -411 -1358 -186
v -406 -1360 -146
v -397 -1361 -89
v -407 -1361 -14
v -424 -1356 59
v -413 -1361 153
v -423 -1359 293
v -385 -1362 332
v -425 -1331 431
v -399 -1233 -46
v -396 -1233 158
v -409 -1231 219
v -400 -1180 -44
v -393 -1180 35
v -390 -1209 251
v -375 -1770 3
v -377 -1771 37
v -373 -1518 -285
v -325 -1540 -33
v -338 -1513 162
v -345 -1516 208
v -360 -1507 246
v -359 -1466 -333
v -348 -1459 -277
v -336 -1457 -209
v -354 -1495 -143
v -352 -1453 -59
v -360 -1458 21
v -362 -1466 60
v -335 -1445 144
v -337 -1484 208
v -367 -1391 -400
v -342 -1407 -371
v -362 -1415 -300
v -350 -1412 -203
v -359 -1411 5
v -342 -1413 54
v -337 -1408 151
v -343 -1419 203
v -383 -1424 298
v -337 -1415 337
v -379 -1353 -400
v -321 -1364 351
v -373 -1163 50
v -376 -1173 146
v -372 -1142 -311
v -354 -1114 -56
v -374 -1134 -14
v -362 -1135 71
v -377 -1154 187
v -327 -1019 -49
v -342 -972 -107
v -365 -969 -44
v -355 -992 -25
v -341 -898 -160
v -348 -882 -59
v -352 -938 4
v -322 -839 -152
v -334 -863 -81
v -329 -849 -32
v -291 -1732 7
v -282 -1685 5
v -275 -1670 37
v -282 -1575 -117
v -286 -1596 18
v -275 -1544 -113
v -265 -1525 -77
v -273 -1544 11
v -287 -1573 45
v -279 -1540 116
v -315 -1518 177
v -291 -1448 -298
v -296 -1456 -208
v -301 -1459 -124
v -267 -1444 -4
v -272 -1447 117
v -289 -1458 218
v -269 -1407 -409
v -272 -1400 -359
v -278 -1412 -283
v -296 -1424 -224
v -284 -1433 -138
v -284 -1431 -58
v -257 -1429 44
v -249 -1432 128
v -288 -1421 209
v -279 -1410 289
v -279 -1398 348
v -269 -1359 -408
v -308 -971 -97
v -308 -981 319
v -288 -914 -162
v -289 -924 -3
v -264 -841 -255
v -292 -838 -180
v -284 -841 -132
v -272 -852 -3
v -278 -739 -164
v -270 -779 -59
v -216 -1670 20
v -179 -1577 -93
v -202 -1605 -12
v -201 -1595 67
v -206 -1518 -305
v -201 -1508 -137
v -207 -1552 -71
v -229 -1534 7
v -198 -1563 84
v -220 -1547 123
v -180 -1513 189
v -233 -1450 -333
v -222 -1439 -306
v -197 -1466 -131
v -200 -1474 -82
v -176 -1484 21
v -183 -1473 83
v -219 -1489 139
v -218 -1471 210
v -221 -1448 266
v -210 -1397 -420
v -211 -1420 -351
v -241 -1428 -278
v -210 -1429 -51
v -202 -1432 -12
v -219 -1431 75
v -209 -1432 157
v -207 -1427 215
v -220 -1427 289
v -215 -1402 364
v -202 -1332 -423
v -199 -1217 -441
v -233 -765 -24
v -209 -683 -125
v -216 -711 -71
v -176 -516 13
v -141 -1716 -36
v -114 -1737 77
v -141 -1685 -75
v -126 -1580 -123
v -163 -1583 -81
v -164 -1578 75
v -117 -1585 180
v -136 -1506 -201
v -118 -1559 -140
v -143 -1520 -90
v -171 -1543 11
v -157 -1528 58
v -134 -1551 131
v -125 -1541 224
v -137 -1542 292
v -142 -1511 339
v -133 -1479 -185
v -137 -1467 -150
v -134 -1465 -85
v -165 -1465 -7
v -155 -1460 64
v -142 -1467 126
v -132 -1485 212
v -131 -1475 296
v -153 -1388 -423
v -147 -1414 -356
v -142 -1428 -176
v -108 -1426 -148
v -121 -1425 -58
v -126 -1425 51
v -142 -1434 169
v -139 -1430 192
v -133 -1428 290
v -164 -1423 359
v -157 -1380 388
v -157 -1341 -428
v -166 -1233 -444
v -146 -1213 -433
v -124 -767 -276
v -148 -740 -229
v -151 -727 -245
v -152 -714 -226
v -166 -544 -2
v -173 -565 183
v -159 -523 -157
v -151 -496 -42
v -169 -490 -21
v -37 -1948 7
v -43 -1756 -112
v -87 -1762 -77
v -94 -1774 -23
v -73 -1724 137
v -87 -1696 -136
v -67 -1669 171
v -63 -1590 -155
v -104 -1578 157
v -66 -1584 204
v -72 -1540 -139
v -72 -1510 163
v -62 -1556 220
v -76 -1547 267
v -81 -1531 329
v -79 -1443 -373
v -39 -1448 -276
v -83 -1476 -220
v -80 -1473 -138
v -83 -1471 145
v -72 -1467 221
v -84 -1475 271
v -66 -1464 325
v -78 -1397 -412
v -89 -1425 -234
v -62 -1427 -123
v -71 -1429 133
v -91 -1434 242
v -63 -1427 278
v -61 -1423 371
v -58 -1381 430
v -85 -786 -277
v -68 -795 -242
v -41 -658 -198
v -16 -2000 9
v 11 -1974 -3
v -0 -1968 45
v -4 -1910 10
v 9 -1813 2
v -20 -1818 36
v -4 -1751 -113
v -31 -1781 -75
v 5 -1759 121
v -27 -1692 -151
v 3 -1711 166
v 31 -1656 188
v 10 -1664 274
v 11 -1672 329
v -15 -1585 -189
v -9 -1593 -167
v 29 -1581 227
v 20 -1612 283
v 8 -1608 365
v 8 -1599 421
v 2 -1507 -244
v 3 -1533 -162
v 13 -1555 191
v 7 -1547 262
v 12 -1448 -391
v -25 -1444 -332
v -9 -1456 -300
v -8 -1483 -235
v 14 -1459 -155
v 1 -1444 157
v -1 -1462 196
v -23 -1456 278
v 12 -1447 344
v -8 -1387 -401
v -15 -1426 -338
v -26 -1425 -299
v 1 -1429 -203
v 11 -1426 -138
v 12 -1427 296
v 21 -1419 377
v -3 -1401 421
v -2 -769 -265
v 4 -746 -224
v -10 -680 -220
v -3 -492 -154
v 1 -408 -145
v 12 -372 -123
v 0 0 0
v 90 -1752 -65
v 71 -1782 -5
v 88 -1720 133
v 68 -1669 293
v 57 -1658 340
v 64 -1583 -154
v 88 -1578 198
v 67 -1620 281
v 44 -1628 333
v 67 -1603 408
v 95 -1600 467
v 44 -1541 -217
v 79 -1542 -137
v 83 -1561 179
v 70 -1526 281
v 67 -1552 352
v 52 -1515 406
v 93 -1563 476
v 88 -1440 -397
v 70 -1451 -338
v 64 -1451 -279
v 72 -1471 -209
v 85 -1471 -137
v 81 -1471 155
v 64 -1485 184
v 71 -1479 282
v 68 -1474 357
v 78 -1472 411
v 66 -1379 -395
v 85 -1419 -324
v 79 -1427 -248
v 60 -1431 145
v 67 -1432 225
v 38 -1433 310
v 75 -1425 354
v 72 -1383 412
v 90 -1083 -354
v 90 -960 -321
v 76 -898 -289
v 88 -262 -80
v 140 -1792 -69
v 156 -1815 -13
v 168 -1754 -87
v 159 -1757 -32
v 126 -1744 42
v 111 -1677 -118
v 163 -1694 -13
v 129 -1584 -178
v 137 -1581 -142
v 161 -1580 -87
v 151 -1604 126
v 130 -1599 356
v 139 -1608 429
v 146 -1587 469
v 125 -1530 -112
v 165 -1554 -82
v 149 -1549 131
v 163 -1506 199
v 144 -1569 298
v 126 -1539 360
v 141 -1539 416
v 133 -1563 485
v 137 -1487 -361
v 117 -1477 -254
v 138 -1480 -197
v 139 -1493 -130
v 153 -1478 -63
v 162 -1449 -12
v 159 -1460 67
v 130 -1464 130
v 150 -1475 218
v 140 -1477 280
v 142 -1476 358
v 131 -1476 417
v 157 -1369 -418
v 120 -1422 -267
v 168 -1424 -202
v 133 -1432 -151
v 107 -1425 -77
v 156 -1426 28
v 140 -1431 129
v 141 -1428 208
v 130 -1429 260
v 147 -1427 352
v 155 -1391 422
v 165 -1090 -348
v 135 -1055 -365
v 135 -981 -322
v 160 -919 -290
v 190 -1789 -45
v 204 -1788 11
v 230 -1754 -13
v 241 -1627 -123
v 208 -1593 -69
v 231 -1591 5
v 230 -1593 52
v 204 -1585 123
v 198 -1584 360
v 193 -1600 427
v 197 -1597 469
v 219 -1551 -108
v 219 -1548 -55
v 212 -1547 -5
v 210 -1554 60
v 234 -1540 131
v 189 -1520 285
v 186 -1567 366
v 204 -1556 434
v 186 -1569 497
v 215 -1437 -359
v 217 -1443 -287
v 227 -1439 -208
v 206 -1466 -131
v 212 -1458 -76
v 199 -1452 -8
v 213 -1458 89
v 179 -1454 140
v 212 -1462 222
v 196 -1468 283
v 206 -1468 358
v 207 -1465 413
v 236 -1377 -398
v 209 -1414 -339
v 205 -1414 -285
v 230 -1428 -208
v 233 -1428 -151
v 184 -1429 -100
v 210 -1428 -6
v 225 -1429 44
v 217 -1429 121
v 199 -1428 187
v 180 -1429 265
v 204 -1412 371
v 222 -1383 408
v 234 -747 254
v 309 -1804 -493
v 301 -1787 -432
v 307 -1818 -331
v 303 -1689 -310
v 278 -1697 -106
v 296 -1668 -77
v 288 -1677 -24
v 286 -1627 -186
v 282 -1605 -144
v 293 -1620 -86
v 292 -1625 -9
v 247 -1580 404
v 300 -1546 -208
v 274 -1533 -122
v 281 -1545 -76
v 268 -1529 74
v 275 -1538 117
v 255 -1507 272
v 266 -1438 -328
v 297 -1445 -290
v 275 -1457 -219
v 281 -1469 -145
v 285 -1482 -72
v 282 -1474 -1
v 266 -1463 48
v 268 -1450 144
v 307 -1446 186
v 265 -1483 287
v 266 -1473 340
v 293 -1397 -342
v 280 -1412 -285
v 277 -1421 -233
v 282 -1431 -123
v 298 -1434 -73
v 267 -1429 4
v 254 -1432 67
v 261 -1433 147
v 280 -1420 207
v 262 -1409 274
v 274 -1425 322
v 269 -1399 399
v 268 -1355 451
v 270 -838 -261
v 329 -1814 -237
v 321 -1730 -481
v 320 -1705 -421
v 335 -1672 -242
v 332 -1667 -135
v 357 -1672 -84
v 353 -1668 -14
v 330 -1628 -194
v 364 -1600 -139
v 343 -1612 -79
v 329 -1615 -3
v 349 -1555 -270
v 333 -1572 -226
v 337 -1531 -134
v 345 -1534 -81
v 329 -1546 -15
v 316 -1563 77
v 356 -1478 -138
v 351 -1469 -56
v 352 -1448 4
v 347 -1449 86
v 335 -1447 131
v 325 -1460 240
v 336 -1453 323
v 342 -1407 -340
v 340 -1397 -282
v 328 -1427 -139
v 348 -1414 -61
v 348 -1405 6
v 350 -1398 77
v 337 -1415 152
v 341 -1425 201
v 372 -1371 292
v 325 -1422 365
v 331 -1363 -358
v 356 -1365 343
v 343 -1059 136
v 325 -1001 148
v 340 -1012 183
v 410 -1656 -101
v 393 -1651 -28
v 393 -1611 -112
v 397 -1621 -76
v 391 -1545 -192
v 393 -1511 -74
v 404 -1485 -118
v 393 -1485 -51
v 402 -1503 -22
v 413 -1391 -267
v 393 -1412 -221
v 390 -1366 -155
v 387 -1369 -70
v 390 -1367 34
v 387 -1366 129
v 385 -1422 215
v 416 -1324 -398
v 416 -1354 -263
v 416 -1357 116
v 408 -1324 437
f 9 3 10
f 17 20 24
f 22 23 24
f 17 18 20
f 24 21 22
f 24 26 63
f 26 24 25
f 20 19 8
f 26 25 13
f 21 24 20
f 17 61 18
f 10 11 23
f 10 23 22
f 13 25 24
f 9 10 21
f 17 24 65
f 26 13 14
f 26 27 28
f 21 10 22
f 24 23 12
f 11 10 3
f 26 30 63
f 8 19 7
f 20 9 21
f 11 55 23
f 18 6 19
f 69 31 34
f 32 29 33
f 20 18 19
f 63 29 24
f 64 31 69
f 9 20 54
f 26 31 30
f 6 7 19
f 31 64 30
f 11 3 46
f 34 31 26
f 18 52 6
f 15 16 26
f 65 24 29
f 8 7 54
f 16 27 26
f 26 28 34
f 12 23 55
f 33 29 63
f 63 30 64
f 32 33 67
f 9 54 3
f 1 42 37
f 15 59 16
f 14 13 57
f 24 55 13
f 20 8 54
f 12 55 24
f 26 14 58
f 26 58 15
f 2 43 1
f 32 67 66
f 7 6 42
f 47 48 55
f 17 149 61
f 18 61 52
f 55 11 46
f 1 43 42
f 7 42 53
f 64 68 63
f 33 63 68
f 2 44 43
f 3 45 46
f 28 27 62
f 61 51 52
f 52 42 6
f 47 5 48
f 13 55 57
f 14 57 15
f 16 59 60
f 33 68 67
f 55 56 57
f 54 7 53
f 32 66 29
f 5 47 56
f 1 43 53
f 1 53 43
f 17 65 113
f 5 56 48
f 2 1 44
f 61 108 51
f 69 34 64
f 15 58 14
f 55 48 56
f 57 58 15
f 1 37 44
f 17 113 194
f 68 64 110
f 56 48 47
f 97 52 51
f 61 149 108
f 55 46 102
f 72 73 76
f 29 66 65
f 73 72 70
f 72 76 75
f 16 60 27
f 78 71 75
f 78 74 71
f 48 49 47
f 3 44 45
f 75 109 72
f 40 50 39
f 59 58 96
f 49 95 47
f 50 41 58
f 67 68 110
f 67 110 66
f 3 54 44
f 53 99 54
f 37 42 43
f 108 97 51
f 41 50 58
f 53 42 98
f 27 60 62
f 59 96 106
f 48 95 49
f 72 109 70
f 48 47 95
f 78 77 74
f 36 35 80
f 43 91 42
f 46 45 93
f 40 39 90
f 28 110 34
f 74 77 111
f 76 112 75
f 66 113 65
f 54 99 100
f 110 70 66
f 93 47 46
f 45 44 93
f 37 43 44
f 87 88 38
f 47 95 48
f 62 107 28
f 54 100 44
f 35 80 81
f 64 34 110
f 38 88 89
f 43 44 92
f 35 36 80
f 73 70 76
f 53 98 99
f 59 106 60
f 50 40 90
f 66 70 109
f 98 42 52
f 48 95 47
f 46 47 93
f 77 78 115
f 38 89 85
f 194 149 17
f 44 43 92
f 78 79 115
f 38 86 87
f 39 50 90
f 58 57 105
f 76 70 112
f 38 85 86
f 71 74 111
f 35 81 80
f 75 71 78
f 44 92 100
f 54 44 100
f 49 96 95
f 44 100 101
f 100 92 54
f 46 93 101
f 28 232 110
f 46 101 102
f 62 60 107
f 113 66 111
f 44 100 91
f 91 43 42
f 66 109 111
f 75 112 109
f 58 105 96
f 84 87 81
f 70 110 112
f 107 60 106
f 44 92 93
f 52 97 98
f 77 114 111
f 56 55 103
f 79 77 115
f 99 91 100
f 71 111 78
f 79 78 116
f 56 103 95
f 56 95 57
f 79 118 77
f 88 84 81
f 81 84 82
f 96 105 106
f 92 100 54
f 87 84 81
f 81 82 88
f 54 100 101
f 54 101 100
f 88 82 84
f 57 95 105
f 79 116 118
f 44 91 92
f 78 111 116
f 102 103 55
f 81 80 119
f 109 116 111
f 114 115 111
f 77 117 114
f 112 110 116
f 112 116 109
f 111 115 113
f 80 81 119
f 95 104 105
f 84 87 81
f 98 91 99
f 101 100 141
f 89 88 128
f 81 87 84
f 118 116 151
f 114 152 115
f 103 144 95
f 100 92 131
f 89 87 85
f 99 141 100
f 87 86 126
f 105 104 145
f 114 117 152
f 85 87 86
f 77 118 117
f 91 131 92
f 86 102 133
f 103 94 87
f 87 94 126
f 107 106 147
f 85 86 125
f 98 97 140
f 86 133 125
f 98 130 91
f 105 138 147
f 131 141 99
f 99 100 131
f 136 145 104
f 89 128 126
f 91 130 131
f 89 95 128
f 118 152 117
f 107 148 28
f 103 102 143
f 118 151 152
f 108 149 97
f 87 126 103
f 147 105 146
f 141 131 130
f 102 142 143
f 107 147 148
f 141 130 140
f 104 145 136
f 87 126 88
f 116 110 151
f 102 86 133
f 86 125 133
f 86 126 125
f 85 125 86
f 105 145 146
f 94 103 126
f 98 140 130
f 81 119 121
f 115 152 113
f 152 151 153
f 95 144 104
f 89 128 167
f 140 97 139
f 126 128 125
f 97 149 139
f 232 28 148
f 138 96 137
f 130 131 140
f 119 81 121
f 128 89 167
f 128 167 125
f 141 180 101
f 110 198 151
f 86 125 126
f 133 101 142
f 126 128 88
f 101 172 142
f 125 164 85
f 151 197 153
f 180 226 101
f 124 133 132
f 128 126 127
f 142 174 143
f 149 192 139
f 152 199 113
f 103 135 144
f 149 150 192
f 153 197 152
f 103 143 135
f 122 126 121
f 126 122 127
f 198 110 232
f 146 145 137
f 137 145 136
f 140 180 141
f 144 135 104
f 121 126 120
f 131 123 140
f 136 129 128
f 83 120 125
f 152 197 199
f 125 167 164
f 137 177 146
f 135 143 174
f 138 178 137
f 136 176 135
f 135 175 144
f 137 178 223
f 126 125 120
f 122 128 127
f 140 139 180
f 146 187 147
f 151 198 197
f 136 135 177
f 142 132 133
f 144 145 135
f 148 189 232
f 145 177 136
f 142 133 174
f 104 135 145
f 145 144 176
f 144 175 176
f 164 127 125
f 133 135 134
f 142 172 132
f 164 167 127
f 148 147 188
f 197 198 200
f 101 181 172
f 135 133 174
f 125 85 164
f 194 113 196
f 121 160 122
f 139 179 180
f 125 127 165
f 160 121 159
f 149 190 150
f 135 176 134
f 119 160 159
f 159 157 119
f 138 224 178
f 197 200 199
f 121 120 159
f 135 174 175
f 139 179 149
f 113 199 280
f 122 161 128
f 133 134 173
f 162 133 124
f 139 192 179
f 124 132 162
f 134 176 175
f 127 166 165
f 177 145 185
f 132 173 133
f 148 188 189
f 174 166 135
f 150 191 192
f 174 133 173
f 147 187 188
f 113 280 196
f 101 226 181
f 177 185 186
f 160 119 156
f 119 157 156
f 194 234 149
f 136 177 176
f 192 190 179
f 122 160 210
f 174 165 166
f 165 174 125
f 154 200 201
f 174 133 125
f 133 162 172
f 174 184 175
f 166 167 135
f 177 186 146
f 138 137 224
f 156 157 155
f 166 127 167
f 173 171 133
f 159 158 157
f 132 172 173
f 172 164 133
f 150 149 190
f 122 210 161
f 177 135 176
f 199 200 283
f 150 190 192
f 133 171 132
f 162 132 219
f 159 120 158
f 219 132 171
f 133 164 125
f 156 208 160
f 128 168 167
f 189 188 232
f 147 187 229
f 157 204 155
f 160 208 210
f 135 167 176
f 164 172 220
f 194 193 234
f 169 168 215
f 168 169 215
f 161 168 128
f 187 147 230
f 172 181 182
f 146 186 229
f 229 230 147
f 187 146 229
f 194 196 234
f 120 163 158
f 186 222 177
f 169 170 178
f 125 164 163
f 174 173 183
f 179 190 225
f 207 204 157
f 164 220 163
f 186 222 229
f 158 207 157
f 179 225 180
f 182 173 172
f 155 205 156
f 173 172 183
f 173 134 220
f 156 206 208
f 174 183 184
f 229 222 177
f 145 176 185
f 181 226 171
f 155 204 205
f 199 281 280
f 171 226 219
f 169 178 215
f 178 170 216
f 188 231 232
f 207 158 209
f 170 169 216
f 188 187 231
f 171 173 219
f 134 176 221
f 183 172 173
f 176 177 221
f 193 194 234
f 171 220 182
f 171 182 181
f 223 178 224
f 222 185 176
f 200 198 283
f 182 220 173
f 178 216 215
f 215 168 214
f 176 221 222
f 137 309 224
f 219 173 220
f 229 177 222
f 171 219 220
f 205 241 156
f 183 227 184
f 176 175 184
f 137 223 309
f 161 211 168
f 229 223 230
f 168 215 214
f 177 176 213
f 219 226 218
f 193 233 234
f 177 222 309
f 177 213 222
f 167 213 176
f 263 172 162
f 217 180 225
f 176 184 228
f 187 230 231
f 169 215 216
f 220 212 163
f 218 262 219
f 172 305 220
f 196 235 234
f 220 227 173
f 162 219 263
f 177 222 221
f 233 193 234
f 211 214 168
f 163 209 158
f 161 210 211
f 221 176 228
f 206 156 241
f 183 173 227
f 205 243 241
f 229 222 223
f 205 204 243
f 190 358 225
f 217 270 180
f 163 250 209
f 226 180 271
f 213 167 168
f 283 198 232
f 280 235 196
f 172 263 305
f 271 180 270
f 208 211 210
f 241 243 240
f 204 207 203
f 199 283 281
f 221 222 266
f 134 264 220
f 223 177 309
f 257 212 220
f 228 222 221
f 212 257 163
f 214 215 259
f 213 168 258
f 220 305 257
f 149 358 190
f 223 222 230
f 250 163 257
f 228 184 227
f 226 271 218
f 218 261 262
f 217 225 270
f 228 227 363
f 209 251 207
f 234 235 279
f 223 224 267
f 222 228 265
f 219 262 263
f 206 246 208
f 227 220 273
f 207 245 242
f 223 309 177
f 208 247 211
f 222 265 230
f 232 231 276
f 277 234 279
f 204 203 243
f 261 271 262
f 207 242 203
f 209 250 251
f 206 241 244
f 222 213 266
f 220 219 272
f 202 236 238
f 213 258 266
f 261 270 225
f 231 268 276
f 246 206 244
f 272 264 220
f 219 263 272
f 224 268 267
f 202 237 236
f 214 258 168
f 202 239 237
f 241 240 244
f 225 358 269
f 203 242 243
f 220 264 273
f 271 262 218
f 231 275 268
f 223 267 309
f 231 230 275
f 221 266 134
f 266 258 308
f 215 214 253
f 363 265 228
f 230 265 266
f 266 222 354
f 215 253 259
f 235 280 279
f 264 134 306
f 208 246 247
f 239 202 238
f 276 268 275
f 230 274 275
f 234 277 278
f 227 273 363
f 251 245 207
f 255 254 293
f 261 225 260
f 224 309 268
f 248 249 253
f 259 298 215
f 250 257 295
f 177 309 222
f 214 259 252
f 225 269 260
f 211 247 290
f 275 274 268
f 274 230 316
f 222 266 308
f 278 277 279
f 276 319 232
f 214 252 290
f 363 273 362
f 220 264 348
f 262 256 263
f 222 308 309
f 272 273 264
f 278 372 234
f 252 211 290
f 238 236 237
f 280 281 282
f 243 242 240
f 232 319 460
f 254 255 293
f 275 318 276
f 220 348 219
f 274 317 268
f 265 308 266
f 273 272 305
f 251 250 289
f 267 268 309
f 249 254 292
f 262 304 256
f 275 268 318
f 253 291 248
f 253 252 259
f 254 249 288
f 270 261 271
f 278 279 372
f 230 266 316
f 254 310 298
f 253 254 292
f 295 257 332
f 250 295 289
f 269 358 312
f 268 317 318
f 254 299 310
f 248 253 291
f 254 293 299
f 262 304 303
f 318 319 276
f 262 271 304
f 254 253 299
f 253 292 299
f 348 264 306
f 268 310 309
f 248 288 249
f 281 283 282
f 254 298 299
f 253 249 291
f 292 288 249
f 254 288 293
f 292 291 288
f 258 297 308
f 266 307 134
f 266 354 307
f 269 312 260
f 273 305 306
f 272 263 305
f 300 310 299
f 239 238 237
f 283 323 282
f 249 288 291
f 256 263 348
f 363 315 265
f 219 348 263
f 248 287 288
f 292 254 299
f 310 300 311
f 266 308 316
f 245 251 329
f 260 312 302
f 265 315 308
f 214 290 258
f 274 316 317
f 248 291 287
f 298 310 309
f 261 260 271
f 262 303 304
f 244 286 246
f 256 305 263
f 242 284 240
f 273 306 362
f 256 304 305
f 260 303 271
f 283 232 418
f 299 293 292
f 251 289 329
f 317 316 318
f 308 315 307
f 242 245 329
f 309 310 318
f 234 372 322
f 240 284 285
f 232 460 418
f 292 293 288
f 271 314 304
f 306 134 349
f 234 371 149
f 303 313 271
f 240 285 328
f 246 286 247
f 300 299 311
f 460 319 368
f 305 306 257
f 134 307 353
f 271 313 314
f 295 332 289
f 293 294 301
f 279 323 372
f 308 307 316
f 304 314 305
f 291 299 298
f 234 322 371
f 260 302 303
f 328 244 240
f 247 334 290
f 298 309 299
f 247 286 334
f 295 256 305
f 285 330 328
f 242 329 284
f 313 359 314
f 306 305 349
f 256 348 305
f 301 294 345
f 312 358 302
f 299 342 298
f 149 371 320
f 222 309 354
f 322 321 371
f 244 328 286
f 280 323 279
f 296 306 257
f 292 287 291
f 342 291 298
f 305 314 348
f 297 258 290
f 314 304 348
f 306 305 361
f 318 316 366
f 285 284 330
f 305 348 304
f 299 309 310
f 299 310 343
f 362 306 350
f 293 301 344
f 315 353 307
f 307 354 353
f 306 338 257
f 304 347 305
f 313 303 359
f 291 335 299
f 311 299 357
f 283 418 323
f 303 302 346
f 321 322 371
f 293 344 336
f 318 319 309
f 316 365 366
f 297 340 308
f 303 346 359
f 318 310 319
f 336 293 335
f 294 293 336
f 314 359 304
f 305 347 348
f 320 371 370
f 307 353 316
f 347 304 348
f 310 309 319
f 319 318 367
f 134 353 352
f 134 352 350
f 310 356 343
f 353 354 400
f 310 318 357
f 363 362 351
f 299 335 343
f 311 357 318
f 299 343 342
f 286 328 334
f 306 349 348
f 280 282 323
f 306 349 338
f 315 363 353
f 299 343 357
f 368 319 367
f 322 372 371
f 310 357 356
f 338 332 257
f 365 316 353
f 338 339 332
f 294 336 337
f 314 359 407
f 359 348 304
f 351 362 350
f 289 332 333
f 335 293 336
f 305 348 361
f 293 336 344
f 355 402 309
f 306 361 350
f 332 331 289
f 359 314 407
f 289 333 329
f 302 358 346
f 342 335 291
f 284 329 330
f 318 366 367
f 353 352 364
f 134 350 349
f 149 320 369
f 349 305 348
f 294 337 345
f 344 343 356
f 349 350 348
f 320 370 369
f 289 331 332
f 336 344 345
f 353 363 352
f 366 365 415
f 357 367 356
f 343 344 357
f 293 344 336
f 350 338 349
f 357 368 367
f 308 400 309
f 336 345 337
f 338 350 339
f 297 290 340
f 335 381 343
f 324 325 327
f 308 340 353
f 309 341 354
f 350 361 410
f 359 346 394
f 359 394 407
f 400 308 353
f 365 354 415
f 365 414 354
f 357 344 391
f 342 381 335
f 337 392 345
f 290 334 380
f 340 290 380
f 345 344 337
f 333 330 329
f 336 335 382
f 332 384 331
f 359 360 348
f 352 399 350
f 326 324 327
f 356 403 355
f 353 364 400
f 356 355 389
f 370 371 369
f 350 396 348
f 345 391 344
f 356 367 416
f 353 399 352
f 352 400 364
f 353 400 365
f 351 411 350
f 343 381 390
f 351 350 411
f 337 344 382
f 350 363 351
f 356 416 357
f 337 382 383
f 340 387 353
f 368 357 417
f 391 345 392
f 355 402 401
f 367 366 415
f 356 389 403
f 354 341 400
f 349 348 397
f 361 360 410
f 361 348 360
f 344 391 382
f 325 324 373
f 339 350 386
f 350 398 386
f 353 387 399
f 325 374 327
f 355 403 356
f 363 350 352
f 350 410 397
f 328 330 334
f 343 390 342
f 349 396 350
f 372 461 371
f 353 400 399
f 332 339 384
f 368 417 460
f 399 400 353
f 359 408 360
f 400 414 365
f 355 401 444
f 350 351 352
f 352 351 398
f 356 403 355
f 350 397 411
f 346 406 394
f 417 357 416
f 396 398 350
f 416 367 403
f 352 398 412
f 335 336 382
f 357 404 403
f 350 399 396
f 357 391 404
f 348 396 397
f 356 357 403
f 392 337 383
f 354 414 415
f 358 406 346
f 324 326 373
f 367 415 402
f 333 334 330
f 410 360 409
f 333 377 334
f 340 388 387
f 400 413 414
f 391 392 383
f 367 402 403
f 149 369 358
f 394 406 407
f 309 400 341
f 332 331 384
f 351 411 398
f 387 398 399
f 391 381 382
f 342 390 381
f 344 356 403
f 339 386 384
f 396 399 398
f 389 355 401
f 349 397 396
f 372 323 461
f 398 387 386
f 334 377 380
f 340 380 388
f 344 403 391
f 352 399 400
f 402 401 355
f 408 359 450
f 371 461 369
f 415 456 402
f 387 384 386
f 406 358 405
f 389 436 403
f 359 407 450
f 352 412 399
f 332 385 377
f 399 413 400
f 332 384 385
f 325 375 374
f 387 388 384
f 388 380 387
f 382 391 383
f 410 409 397
f 391 403 404
f 415 414 456
f 355 444 402
f 406 405 393
f 450 407 449
f 326 327 375
f 373 375 325
f 397 394 440
f 327 374 375
f 411 453 398
f 373 326 375
f 385 380 377
f 416 403 417
f 397 396 394
f 397 409 451
f 403 436 447
f 377 378 380
f 401 436 389
f 380 385 386
f 385 384 432
f 396 395 394
f 377 380 378
f 453 411 397
f 396 408 395
f 440 396 409
f 406 449 407
f 398 453 411
f 381 430 382
f 358 369 517
f 360 408 409
f 380 378 379
f 396 440 408
f 414 413 455
f 378 380 379
f 380 386 387
f 399 455 413
f 406 393 437
f 384 388 434
f 440 394 439
f 382 430 391
f 393 405 437
f 409 396 440
f 430 381 391
f 384 434 385
f 395 439 394
f 397 440 396
f 412 411 442
f 323 418 461
f 434 412 442
f 388 399 434
f 449 406 437
f 412 411 442
f 385 432 433
f 387 386 478
f 402 456 457
f 395 408 439
f 417 403 459
f 388 444 399
f 412 454 399
f 385 478 386
f 408 440 439
f 408 451 409
f 397 441 385
f 412 443 454
f 460 520 418
f 441 433 385
f 402 458 446
f 412 434 443
f 442 411 453
f 417 459 460
f 388 435 444
f 385 434 433
f 455 456 414
f 358 517 405
f 397 433 441
f 401 445 444
f 458 447 446
f 443 442 453
f 399 444 434
f 443 453 454
f 402 445 401
f 401 402 446
f 448 405 517
f 435 434 444
f 458 403 447
f 447 436 446
f 434 442 443
f 402 457 458
f 376 427 426
f 436 401 446
f 403 447 459
f 402 444 445
f 432 441 440
f 447 403 458
f 440 431 432
f 437 438 448
f 434 435 433
f 453 397 452
f 385 477 478
f 433 477 385
f 438 449 448
f 448 437 405
f 426 428 376
f 448 449 437
f 399 454 492
f 451 408 450
f 439 479 440
f 435 388 434
f 423 424 466
f 418 498 461
f 384 433 477
f 428 424 429
f 432 384 433
f 453 452 411
f 376 428 427
f 440 441 451
f 440 488 439
f 431 475 432
f 451 441 440
f 451 450 488
f 397 451 452
f 457 456 492
f 437 449 438
f 437 438 449
f 452 490 411
f 453 411 490
f 419 420 463
f 387 478 388
f 457 492 493
f 384 477 433
f 461 517 369
f 431 479 475
f 458 457 485
f 441 432 476
f 388 478 434
f 458 485 447
f 444 492 455
f 428 470 427
f 488 450 439
f 438 431 479
f 452 489 490
f 437 448 438
f 435 477 433
f 438 473 431
f 454 453 492
f 455 492 456
f 438 479 439
f 429 471 428
f 418 498 499
f 424 425 468
f 440 479 488
f 456 492 445
f 452 451 489
f 431 473 474
f 444 482 445
f 421 464 463
f 440 441 480
f 420 419 421
f 492 453 491
f 444 483 482
f 445 493 456
f 424 468 429
f 445 492 493
f 457 484 485
f 423 467 424
f 448 487 438
f 465 421 462
f 432 479 476
f 448 449 487
f 419 463 421
f 423 466 467
f 459 497 460
f 451 488 479
f 427 469 426
f 447 495 459
f 434 478 435
f 457 493 484
f 428 424 471
f 429 472 471
f 418 520 498
f 492 456 493
f 464 422 421
f 478 477 435
f 428 426 469
f 427 470 469
f 448 496 486
f 450 487 439
f 427 476 475
f 450 449 487
f 445 482 442
f 456 493 492
f 421 422 462
f 432 475 479
f 422 465 462
f 438 487 449
f 462 474 465
f 499 498 418
f 439 487 438
f 476 442 441
f 453 490 491
f 498 500 499
f 471 476 428
f 440 480 479
f 476 427 471
f 451 488 489
f 442 481 480
f 442 482 481
f 472 429 468
f 475 476 479
f 480 445 442
f 427 475 471
f 495 447 485
f 425 424 468
f 481 490 489
f 471 470 428
f 438 487 473
f 428 469 470
f 459 495 497
f 449 448 486
f 491 482 492
f 449 486 487
f 442 481 441
f 476 479 480
f 465 474 462
f 479 488 451
f 424 467 468
f 483 492 482
f 441 481 480
f 476 471 479
f 496 448 517
f 487 486 496
f 495 485 497
f 445 480 483
f 490 481 491
f 498 499 500
f 467 471 468
f 428 470 471
f 431 474 505
f 485 494 497
f 475 479 471
f 480 481 489
f 484 516 485
f 476 477 442
f 468 471 472
f 461 498 517
f 470 503 471
f 442 477 481
f 484 493 516
f 460 497 520
f 475 507 479
f 431 505 479
f 482 492 483
f 475 479 507
f 490 481 513
f 482 491 481
f 476 480 506
f 496 517 487
f 503 504 471
f 483 480 481
f 492 516 493
f 489 488 479
f 491 492 482
f 485 516 494
f 471 504 470
f 481 489 513
f 487 511 473
f 467 466 501
f 480 481 509
f 474 473 505
f 492 491 515
f 467 468 502
f 494 520 497
f 490 514 481
f 508 480 509
f 491 482 514
f 467 504 501
f 467 501 466
f 468 467 502
f 520 519 498
f 482 481 514
f 490 513 514
f 479 507 480
f 467 502 504
f 487 510 511
f 492 494 516
f 477 476 509
f 479 513 489
f 487 518 510
f 515 519 492
f 505 512 479
f 477 509 481
f 511 505 473
f 476 506 509
f 511 512 505
f 512 513 479
f 503 470 504
f 480 508 506
f 506 508 509
f 491 519 515
f 513 512 518
f 514 519 491
f 479 480 507
f 514 513 519
f 487 517 518
f 517 498 518
f 494 492 519
f 519 518 498
f 511 518 512
f 510 518 511
f 467 501 502
f 494 519 520
f 502 501 504
f 518 519 513
