# vtk DataFile Version 3.0
nge scythe emblem, bottom-center origin, 1.6um tall, nm units
ASCII
DATASET POLYDATA
POINTS 522 float
-1421 -772 -4
-1448 -663 -1
-1452 -647 2
-1458 -546 0
-1458 -412 -1
-1446 -293 -1
-1452 -288 1
-1421 -206 2
-1433 -198 -1
-1381 -888 -1
-1401 -779 6
-1391 -173 5
-1398 -133 -1
-1378 -89 -1
-1372 -885 -7
-1335 -370 1
-1353 -277 1
-1367 -183 -1
-1322 -992 -2
-1290 -463 1
-1318 -373 -1
-1258 -1107 1
-1247 -1098 -1
-1247 -542 -0
-1275 -460 -1
-1196 -1219 -9
-1201 -618 9
-1230 -540 -0
-1173 -1254 6
-1172 -1205 3
-1150 -1187 4
-1179 -627 -1
-1122 -1304 -8
-1109 -722 2
-1084 -1302 5
-1083 -1265 -0
-1065 -1236 -3
-1039 -1353 4
-1033 -822 1
-991 -1419 2
-971 -1349 -1
-974 -1294 1
-949 -927 -1
-902 -1557 -0
-906 -1473 -4
-902 -1445 -1
-894 -1395 5
-886 -1357 3
-883 -162 1
-888 -78 1
-883 -23 -1
-897 -3 2
-837 -1561 -5
-865 -1492 -2
-852 -1453 -1
-877 -1372 -10
-866 -1023 -1
-844 -333 1
-860 -251 1
-865 -165 4
-877 -82 -0
-809 -1539 6
-801 -1479 -1
-801 -1444 -4
-816 -1376 4
-814 -419 0
-761 -1530 0
-757 -1470 1
-761 -1455 -4
-780 -1408 -4
-774 -1126 -2
-772 -498 -0
-757 -9 2
-721 -1524 -7
-723 -1476 -2
-714 -1435 0
-720 -1193 -1
-712 -1186 -3
-709 -610 1
-730 -577 2
-714 -540 0
-709 -481 -9
-712 -430 10
-712 -404 -7
-710 -323 1
-715 -262 2
-724 -173 3
-720 -102 -7
-719 -34 -1
-658 -1509 -28
-670 -1513 -4
-660 -1509 25
-666 -1486 -35
-679 -1482 1
-665 -1487 33
-668 -1457 -3
-662 -1252 0
-689 -480 1
-675 -391 -1
-657 -28 0
-666 -6 0
-643 -1517 -1
-646 -1503 -35
-646 -1503 34
-623 -1432 -28
-635 -1438 4
-613 -1453 38
-609 -1310 0
-652 -347 2
-625 -307 1
-628 -283 2
-615 -120 10
-601 -1478 -37
-593 -1488 3
-601 -1475 37
-606 -1458 -43
-595 -1429 -0
-569 -1389 -30
-571 -1400 2
-567 -1393 32
-575 -1365 -1
-600 -1301 -3
-577 -322 -0
-584 -212 -3
-586 -114 -6
-572 -34 9
-564 -6 2
-541 -1429 -38
-539 -1428 -2
-545 -1435 33
-539 -1398 -38
-549 -1396 -2
-529 -1386 31
-544 -1372 -24
-548 -1361 3
-536 -350 -28
-538 -354 -0
-534 -352 31
-524 -336 -28
-523 -321 1
-527 -333 30
-532 -40 -6
-553 -6 3
-498 -1418 -0
-504 -1408 -1
-514 -1399 29
-502 -362 -31
-492 -354 0
-502 -358 32
-507 -332 -30
-498 -325 1
-515 -322 25
-484 -290 1
-487 -208 -8
-484 -97 9
-473 -23 -7
-461 -282 2
-442 -225 5
-453 -199 12
-467 -111 -7
-470 -28 9
-470 -8 1
-427 -225 -6
-384 -159 8
-388 -153 -0
-407 -98 4
-384 -26 1
-350 -1213 -23
-353 -1210 2
-349 -1196 30
-347 -1190 -29
-356 -1182 2
-346 -584 -30
-357 -581 0
-347 -584 31
-343 -558 -5
-352 -80 2
-340 -26 0
-372 -11 -0
-328 -1207 -34
-327 -1226 1
-329 -1207 34
-312 -1167 -42
-330 -1150 -20
-310 -1158 39
-317 -1131 2
-317 -621 -38
-332 -628 1
-317 -619 41
-315 -585 -38
-315 -591 41
-320 -554 -0
-322 -562 32
-314 -6 1
-286 -1201 -23
-280 -1204 1
-285 -1201 23
-270 -1169 -41
-292 -1184 40
-273 -1127 -45
-290 -1112 -21
-270 -1127 39
-267 -668 -38
-290 -679 0
-270 -667 38
-278 -591 -31
-265 -587 4
-286 -594 40
-238 -1164 -10
-242 -1159 31
-221 -1080 -41
-239 -1059 -1
-226 -1081 40
-211 -720 -45
-228 -734 -9
-219 -723 35
-235 -643 -42
-219 -631 -3
-235 -639 35
-231 -590 -4
-188 -1110 -28
-181 -1116 -0
-191 -1110 32
-180 -1038 -40
-194 -1020 8
-179 -1041 41
-162 -1001 -1
-170 -767 -36
-181 -780 0
-170 -769 35
-195 -702 47
-188 -697 -44
-177 -675 -3
-185 -689 41
-179 -630 1
-194 -604 1
-148 -1065 -31
-140 -1070 8
-155 -1060 38
-137 -1027 -36
-120 -1028 -1
-137 -1028 33
-144 -1010 -29
-139 -1004 2
-157 -1012 31
-130 -789 -28
-134 -800 -2
-127 -791 27
-145 -759 -44
-147 -758 44
-137 -735 -36
-123 -730 1
-139 -740 40
-148 -677 0
-111 -791 -0
-100 -768 -1
-110 -775 27
-37 -894 -4
-28 -873 -27
-40 -861 4
22 -1029 -0
-9 -888 1
-5 -864 -1
54 -1074 -32
44 -1077 9
59 -1068 38
48 -1027 -32
28 -1033 1
51 -1029 33
49 -1008 -2
93 -1116 -36
80 -1125 -0
90 -1118 29
97 -1078 -48
91 -1038 -34
102 -1030 6
83 -1049 41
72 -1009 -1
107 -791 8
110 -764 -31
97 -772 -3
104 -775 26
112 -726 1
149 -1170 -41
136 -1177 -11
150 -1168 38
152 -1142 -48
113 -1103 47
140 -1080 -33
149 -1070 -1
137 -1082 33
134 -797 -1
136 -769 -37
139 -760 43
132 -735 -37
119 -728 2
130 -738 39
146 -674 1
195 -1210 -40
182 -1217 1
196 -1210 38
186 -1173 -47
169 -1150 48
184 -1137 -43
195 -1123 0
187 -1135 36
166 -762 -41
180 -772 -13
169 -768 34
198 -706 -47
198 -708 50
179 -691 -40
179 -673 -5
175 -687 35
178 -629 1
188 -602 2
227 -1241 4
231 -1216 -32
231 -1234 6
223 -1208 37
228 -1181 -36
231 -1165 -0
228 -1184 37
218 -723 -41
231 -732 -10
221 -726 35
232 -639 -40
219 -629 -6
233 -637 35
236 -585 -0
257 -1210 4
263 -658 -45
288 -675 -11
272 -665 40
258 -608 15
286 -595 -39
263 -589 -4
280 -589 32
316 -615 -40
332 -629 0
319 -618 42
314 -583 -37
315 -582 39
320 -554 2
379 -1431 -30
369 -1439 -1
379 -1431 30
344 -585 -30
356 -579 1
346 -582 33
347 -559 2
344 -561 24
374 -81 3
370 -23 2
349 -6 4
392 -1471 -3
404 -1463 39
405 -1442 -39
412 -1441 -1
406 -1426 36
400 -1411 -28
408 -1404 -3
399 -1411 28
412 -153 2
391 -87 1
419 -26 0
410 -11 4
458 -1509 -39
449 -1523 -1
458 -1512 37
464 -1495 -44
461 -1463 -13
464 -1492 42
437 -1430 2
436 -1399 0
451 -222 1
440 -94 4
515 -1554 -31
502 -1558 -2
515 -1554 28
506 -1539 -38
508 -1536 38
488 -1476 -30
500 -1473 4
478 -1480 37
485 -1340 -0
512 -353 2
514 -317 -2
499 -285 4
485 -200 5
514 -31 0
512 -8 1
526 -1556 2
528 -1532 -32
539 -1528 -2
529 -1533 31
546 -1492 0
555 -1284 0
546 -1271 1
539 -354 -34
548 -352 2
545 -352 33
555 -333 -27
540 -326 1
547 -327 26
538 -290 -10
521 -101 0
573 -1566 -7
589 -1523 2
587 -1474 -7
569 -344 -23
575 -357 3
586 -318 1
593 -207 3
623 -1581 2
622 -1549 -1
630 -1490 1
633 -1448 7
617 -1214 -2
643 -1190 6
639 -300 2
643 -142 -8
641 -100 7
627 -34 -1
630 -6 1
692 -1600 -2
676 -1578 5
673 -1540 -3
678 -1489 -3
660 -1440 -5
689 -1412 16
679 -1169 3
695 -396 7
669 -342 1
662 -320 1
700 -1594 -15
698 -1537 -13
731 -1490 -0
719 -1436 -2
723 -1401 -17
709 -1149 -11
736 -1123 7
729 -611 -0
737 -599 -1
729 -541 -1
720 -481 1
708 -394 -1
740 -326 -1
740 -261 0
740 -28 1
717 -6 1
774 -1600 -3
762 -1530 1
763 -1477 -0
756 -1407 0
752 -1107 -4
754 -575 5
757 -543 2
783 -505 10
746 -399 10
757 -177 1
757 -94 -2
783 -9 2
794 -1512 2
811 -1489 -4
831 -1435 3
797 -1406 -8
805 -1361 3
831 -1035 -9
805 -501 -2
831 -419 9
840 -1502 0
848 -1384 3
848 -1367 6
841 -1028 5
845 -419 -2
869 -334 -1
871 -179 9
900 -1384 -2
894 -1348 -4
902 -1307 -3
893 -254 1
913 -163 1
913 -80 0
917 -23 3
928 -1429 4
962 -1335 -1
942 -933 0
937 -921 2
928 -77 4
931 -6 2
1002 -1371 -1
1002 -1305 -2
1008 -1241 -5
1026 -1270 -3
1035 -818 1
1088 -1293 1
1099 -1193 -4
1137 -1248 -2
1126 -1212 -1
1120 -717 -0
1230 -1112 -2
1219 -1101 -3
1196 -624 1
1257 -546 -1
1264 -517 7
1303 -992 -1
1305 -465 -0
1366 -887 -2
1339 -379 1
1367 -285 -0
1409 -769 -1
1378 -285 -2
1389 -195 1
1400 -129 2
1423 -772 -2
1451 -648 -1
1458 -538 -1
1458 -419 -2
1458 -308 -1
1445 -227 0
1422 -174 -1
POLYGONS 1255 5020
3 400 131 128
3 105 75 120
3 105 120 118
3 105 95 75
3 105 118 116
3 105 116 95
3 416 408 427
3 416 427 428
3 399 387 403
3 399 400 387
3 40 47 76
3 40 76 70
3 40 70 35
3 40 35 34
3 135 138 146
3 135 146 136
3 373 374 358
3 373 383 374
3 483 489 482
3 483 490 489
3 483 484 490
3 257 261 259
3 139 373 150
3 139 136 373
3 417 416 409
3 417 429 428
3 417 428 416
3 293 308 310
3 293 310 313
3 293 313 296
3 53 54 62
3 367 355 357
3 367 370 380
3 367 357 370
3 367 368 355
3 367 380 368
3 168 179 167
3 168 170 179
3 176 164 165
3 176 165 166
3 176 166 177
3 502 499 501
3 502 487 499
3 502 506 495
3 502 501 506
3 502 495 487
3 350 343 351
3 350 351 348
3 350 348 343
3 94 106 105
3 94 105 93
3 109 110 122
3 302 319 322
3 302 305 290
3 302 290 287
3 302 287 285
3 302 285 319
3 302 322 305
3 504 505 507
3 504 503 505
3 383 358 374
3 383 416 396
3 383 409 416
3 383 374 409
3 383 371 358
3 383 396 371
3 352 364 353
3 352 353 354
3 352 363 364
3 18 14 33
3 18 9 14
3 18 38 22
3 18 33 38
3 15 19 4
3 15 16 20
3 15 24 19
3 15 4 5
3 15 5 16
3 15 20 24
3 285 299 300
3 285 284 299
3 285 272 284
3 228 227 246
3 228 246 229
3 228 215 214
3 228 214 227
3 228 229 215
3 150 148 147
3 150 151 148
3 494 440 468
3 494 499 492
3 494 492 479
3 494 468 499
3 494 479 440
3 334 336 327
3 74 90 73
3 74 73 66
3 111 99 88
3 111 88 86
3 111 110 123
3 111 125 99
3 111 123 154
3 111 86 110
3 111 154 125
3 321 320 303
3 321 288 304
3 321 330 320
3 321 303 288
3 195 208 209
3 195 180 194
3 195 209 196
3 195 196 180
3 195 194 208
3 227 213 248
3 227 248 245
3 343 335 336
3 343 341 335
3 64 63 75
3 64 75 69
3 64 47 45
3 64 45 63
3 57 85 84
3 57 84 65
3 57 58 85
3 299 319 300
3 299 318 319
3 442 444 443
3 442 456 443
3 442 443 456
3 442 443 444
3 103 90 101
3 103 106 94
3 103 91 90
3 103 94 91
3 103 114 106
3 103 101 114
3 464 453 439
3 464 439 467
3 464 465 471
3 464 467 465
3 403 388 387
3 121 107 96
3 121 134 107
3 80 71 79
3 448 420 434
3 448 477 460
3 448 481 477
3 448 460 420
3 448 447 481
3 448 434 447
3 199 210 197
3 199 197 182
3 126 155 142
3 126 161 155
3 126 100 142
3 126 142 161
3 126 142 100
3 321 305 322
3 321 304 305
3 321 322 330
3 297 314 312
3 37 39 40
3 37 34 32
3 3 19 23
3 3 23 1
3 3 4 19
3 345 346 358
3 403 401 411
3 403 411 410
3 403 404 401
3 403 410 402
3 184 169 181
3 178 193 177
3 178 166 161
3 178 177 166
3 487 474 488
3 487 506 502
3 487 468 474
3 487 502 499
3 487 495 506
3 487 488 495
3 487 499 468
3 343 342 351
3 68 67 63
3 137 148 140
3 137 140 139
3 137 139 136
3 358 361 374
3 516 511 515
3 127 112 115
3 127 144 128
3 127 130 144
3 127 115 130
3 127 128 112
3 206 205 191
3 206 232 205
3 206 217 232
3 416 417 409
3 375 389 388
3 375 363 389
3 36 30 35
3 36 35 37
3 36 37 41
3 59 60 86
3 59 48 60
3 59 86 58
3 59 58 48
3 276 265 287
3 276 287 290
3 276 268 265
3 445 446 469
3 445 469 457
3 445 457 444
3 118 403 131
3 256 247 254
3 256 249 247
3 256 254 255
3 451 435 426
3 451 425 435
3 400 118 131
3 400 403 118
3 104 93 95
3 104 95 105
3 104 105 117
3 357 373 382
3 357 360 373
3 259 262 258
3 416 409 438
3 280 294 279
3 280 295 294
3 44 53 54
3 44 54 45
3 17 12 11
3 17 13 12
3 17 11 16
3 266 263 267
3 349 340 348
3 349 342 340
3 349 348 342
3 391 365 366
3 395 379 392
3 395 381 379
3 520 512 513
3 520 513 521
3 520 519 512
3 240 241 237
3 158 157 165
3 158 165 154
3 158 123 152
3 158 152 157
3 158 154 123
3 455 474 468
3 455 431 441
3 455 468 431
3 455 441 474
3 327 313 328
3 327 328 337
3 327 337 336
3 327 297 313
3 63 44 64
3 63 69 68
3 63 64 69
3 19 3 23
3 19 4 3
3 19 20 15
3 19 15 4
3 19 24 20
3 19 23 24
3 345 358 344
3 420 460 413
3 420 403 412
3 420 413 403
3 219 235 234
3 486 480 478
3 486 496 494
3 486 494 493
3 486 491 496
3 486 478 491
3 486 493 480
3 309 311 331
3 309 294 311
3 309 323 292
3 309 331 323
3 309 292 294
3 73 90 93
3 269 268 277
3 446 475 469
3 446 447 475
3 168 180 181
3 173 174 190
3 173 190 175
3 327 336 329
3 327 329 314
3 25 28 29
3 25 29 28
3 3 2 23
3 318 317 316
3 318 299 298
3 318 298 317
3 318 316 299
3 183 185 200
3 183 171 185
3 183 199 182
3 183 200 199
3 183 182 171
3 189 191 205
3 189 175 191
3 438 429 416
3 438 466 472
3 438 472 454
3 438 454 429
3 66 61 52
3 88 50 72
3 88 87 50
3 88 124 87
3 88 99 124
3 88 72 99
3 208 221 209
3 190 204 218
3 190 218 207
3 190 174 188
3 190 188 204
3 408 416 427
3 408 427 415
3 36 41 37
3 36 35 30
3 36 37 35
3 58 57 85
3 58 85 59
3 270 271 263
3 270 283 284
3 270 284 271
3 112 113 102
3 112 92 115
3 112 128 113
3 112 102 92
3 465 467 453
3 465 485 478
3 465 471 485
3 465 453 464
3 465 478 467
3 465 464 471
3 406 390 423
3 406 421 413
3 406 389 363
3 406 413 389
3 406 363 376
3 406 423 421
3 406 376 390
3 185 171 184
3 79 80 78
3 378 379 381
3 378 392 379
3 201 184 198
3 201 198 209
3 201 212 184
3 201 222 212
3 201 209 222
3 150 152 139
3 397 398 418
3 397 385 398
3 397 454 429
3 397 429 385
3 397 418 454
3 295 280 281
3 295 313 297
3 295 296 313
3 295 282 280
3 295 281 296
3 295 297 282
3 44 63 45
3 44 45 47
3 44 47 64
3 400 399 411
3 116 118 105
3 452 436 437
3 401 386 400
3 75 107 120
3 75 69 107
3 75 63 69
3 137 136 148
3 383 373 374
3 383 382 373
3 383 394 382
3 245 248 255
3 245 254 246
3 245 255 254
3 245 246 248
3 150 136 139
3 467 437 453
3 467 439 430
3 467 430 437
3 467 478 480
3 311 326 331
3 311 294 295
3 311 295 312
3 311 312 326
3 67 62 74
3 31 27 26
3 372 384 359
3 372 381 384
3 372 356 369
3 372 359 356
3 372 369 381
3 434 447 446
3 434 448 447
3 434 446 433
3 434 420 448
3 168 181 169
3 177 176 193
3 177 178 166
3 177 193 178
3 177 166 176
3 400 411 401
3 93 104 92
3 317 298 301
3 317 301 320
3 500 511 503
3 500 508 511
3 500 495 508
3 113 101 102
3 189 186 172
3 189 172 175
3 396 394 408
3 29 35 30
3 29 28 35
3 6 5 4
3 6 8 5
3 265 264 272
3 265 272 287
3 265 268 264
3 339 347 348
3 339 332 331
3 339 338 347
3 339 331 338
3 217 232 234
3 389 388 413
3 389 406 376
3 389 413 406
3 389 376 375
3 389 375 388
3 70 40 35
3 70 76 40
3 70 77 76
3 70 35 56
3 380 370 393
3 521 514 513
3 521 513 520
3 155 141 142
3 155 161 166
3 155 165 159
3 155 166 165
3 155 159 141
3 456 469 458
3 336 337 343
3 63 68 75
3 83 98 97
3 83 97 81
3 83 71 65
3 83 81 71
3 83 65 84
3 83 84 98
3 361 358 362
3 462 490 484
3 462 424 450
3 462 449 423
3 462 484 449
3 462 423 424
3 244 243 226
3 244 241 243
3 244 226 225
3 244 225 241
3 219 206 217
3 219 234 235
3 219 217 234
3 340 333 339
3 340 342 333
3 340 339 348
3 289 275 290
3 289 304 288
3 289 288 275
3 289 290 305
3 289 305 304
3 505 509 507
3 505 504 507
3 505 503 504
3 505 507 509
3 130 131 144
3 227 245 246
3 227 214 213
3 414 415 408
3 414 408 407
3 414 426 415
3 326 336 335
3 326 312 327
3 326 335 331
3 326 327 336
3 40 46 47
3 1 26 2
3 1 0 10
3 1 2 0
3 1 3 2
3 1 2 3
3 1 31 26
3 1 10 31
3 355 345 357
3 117 130 104
3 162 156 157
3 162 164 163
3 162 157 164
3 162 163 156
3 497 494 499
3 497 493 494
3 336 327 329
3 67 68 63
3 67 63 62
3 138 135 139
3 138 139 149
3 138 149 146
3 145 132 129
3 145 129 144
3 365 364 376
3 365 391 366
3 365 353 364
3 365 390 391
3 365 376 390
3 365 366 353
3 261 258 262
3 261 257 258
3 248 250 255
3 452 437 427
3 452 427 436
3 107 120 134
3 107 96 69
3 107 134 121
3 107 69 75
3 107 75 120
3 107 121 96
3 373 136 358
3 482 481 460
3 482 460 483
3 374 373 383
3 374 373 361
3 374 361 373
3 281 280 278
3 281 278 293
3 43 61 52
3 0 14 9
3 355 346 345
3 355 368 356
3 355 356 346
3 399 402 410
3 399 410 411
3 118 119 134
3 118 117 105
3 118 133 117
3 118 134 133
3 118 105 119
3 157 156 163
3 157 164 165
3 157 152 156
3 157 163 164
3 493 497 494
3 493 486 480
3 493 494 486
3 327 314 312
3 67 62 63
3 109 122 110
3 330 318 317
3 503 511 516
3 503 516 504
3 205 202 189
3 205 216 202
3 408 415 427
3 364 353 365
3 364 365 376
3 364 363 352
3 364 376 363
3 364 352 353
3 50 60 49
3 50 87 60
3 50 51 72
3 50 49 51
3 433 432 434
3 433 446 432
3 132 145 131
3 120 107 134
3 120 131 118
3 120 134 131
3 97 98 82
3 97 82 80
3 373 136 139
3 373 358 136
3 489 490 484
3 489 483 482
3 489 484 483
3 242 226 243
3 242 223 226
3 242 239 223
3 150 373 139
3 384 373 359
3 384 383 373
3 384 395 383
3 384 381 395
3 16 7 5
3 16 11 7
3 16 5 15
3 284 272 271
3 89 90 93
3 89 93 92
3 89 101 90
3 89 92 102
3 89 102 101
3 453 437 452
3 453 463 464
3 453 452 463
3 77 76 96
3 77 70 76
3 186 187 172
3 186 189 202
3 186 202 187
3 394 378 392
3 394 395 392
3 394 392 378
3 240 243 241
3 165 160 154
3 165 176 166
3 165 164 176
3 165 166 160
3 337 328 342
3 317 318 316
3 156 152 157
3 156 150 152
3 499 487 474
3 499 474 494
3 94 93 90
3 94 90 91
3 60 48 49
3 60 87 86
3 276 275 277
3 276 290 275
3 276 277 268
3 475 447 476
3 204 188 187
3 394 396 408
3 394 408 407
3 394 407 392
3 315 314 329
3 315 329 314
3 28 29 32
3 17 16 11
3 17 12 13
3 17 11 12
3 266 273 263
3 266 274 273
3 93 90 74
3 245 248 246
3 75 68 74
3 359 373 361
3 359 361 362
3 514 521 513
3 429 453 428
3 429 439 453
3 429 417 430
3 429 430 439
3 477 483 460
3 477 482 483
3 477 481 482
3 193 176 177
3 511 508 515
3 105 120 75
3 105 75 95
3 105 118 120
3 144 128 143
3 144 129 128
3 175 190 192
3 175 192 191
3 364 363 376
3 21 22 18
3 21 29 22
3 19 27 23
3 19 24 27
3 346 359 358
3 184 212 201
3 184 181 198
3 478 480 486
3 478 486 491
3 478 465 467
3 478 467 480
3 478 491 485
3 478 485 465
3 308 293 291
3 308 325 310
3 99 72 88
3 99 100 72
3 99 142 100
3 99 125 142
3 274 275 288
3 274 266 277
3 274 277 275
3 197 208 194
3 197 194 179
3 197 179 182
3 387 400 386
3 47 96 76
3 47 46 69
3 47 69 96
3 267 264 268
3 234 232 253
3 479 466 454
3 479 492 472
3 479 472 466
3 391 390 424
3 79 78 80
3 378 394 392
3 378 377 394
3 139 122 123
3 139 153 152
3 139 152 150
3 139 123 153
3 39 44 46
3 39 46 40
3 7 16 5
3 7 11 16
3 7 12 11
3 7 5 8
3 7 8 12
3 267 263 264
3 204 215 230
3 204 230 218
3 510 509 512
3 510 512 513
3 210 236 220
3 210 220 197
3 210 223 236
3 418 419 398
3 418 398 397
3 418 431 419
3 418 473 431
3 418 397 454
3 418 454 473
3 294 292 279
3 359 362 358
3 461 449 484
3 461 421 449
3 461 484 483
3 461 483 460
3 461 460 421
3 498 496 499
3 332 339 333
3 332 333 324
3 72 50 88
3 72 51 50
3 306 324 307
3 306 323 324
3 306 307 292
3 306 292 323
3 476 481 447
3 476 459 470
3 476 470 475
3 476 447 459
3 168 167 179
3 168 179 180
3 172 187 173
3 172 173 175
3 35 34 37
3 35 28 34
3 26 27 23
3 26 23 2
3 344 358 357
3 511 500 503
3 511 508 500
3 511 515 508
3 511 503 516
3 511 516 515
3 128 129 113
3 218 230 233
3 428 436 427
3 428 427 416
3 428 437 436
3 41 40 37
3 41 47 40
3 60 59 86
3 60 49 48
3 60 88 50
3 60 50 49
3 60 86 88
3 60 48 59
3 432 446 434
3 432 446 445
3 432 445 446
3 130 115 104
3 400 131 403
3 400 128 131
3 120 131 134
3 120 118 131
3 98 84 109
3 150 139 151
3 385 409 374
3 385 429 409
3 44 45 54
3 44 54 53
3 4 15 5
3 4 5 6
3 299 283 298
3 299 284 283
3 422 460 461
3 422 449 423
3 422 406 413
3 422 423 406
3 422 413 460
3 422 461 449
3 210 199 200
3 312 314 327
3 122 110 123
3 330 322 319
3 198 180 196
3 198 181 180
3 198 196 209
3 246 247 229
3 407 415 414
3 407 408 415
3 46 69 63
3 46 40 55
3 46 55 69
3 57 65 84
3 57 84 85
3 456 458 457
3 456 444 443
3 456 457 444
3 232 234 253
3 485 491 478
3 405 412 403
3 405 403 388
3 405 389 413
3 405 413 412
3 405 388 389
3 184 201 185
3 184 171 169
3 97 80 81
3 243 240 242
3 160 142 125
3 160 125 154
3 160 161 142
3 160 166 161
3 324 325 307
3 324 333 325
3 40 45 39
3 40 47 45
3 40 39 37
3 12 8 11
3 261 262 259
3 119 105 106
3 252 249 256
3 252 251 233
3 252 230 249
3 252 233 230
3 252 256 251
3 69 75 68
3 382 370 357
3 382 394 393
3 382 393 370
3 146 149 150
3 146 150 147
3 429 385 409
3 429 409 416
3 429 397 385
3 429 454 397
3 278 280 291
3 61 43 52
3 420 411 412
3 420 412 411
3 176 164 163
3 176 163 164
3 506 495 508
3 342 348 351
3 74 66 67
3 458 469 470
3 383 395 394
3 0 9 10
3 271 264 263
3 271 272 264
3 424 390 391
3 424 423 390
3 215 204 214
3 150 156 152
3 328 310 333
3 328 313 310
3 328 333 342
3 67 66 62
3 180 179 194
3 232 217 234
3 408 392 407
3 408 394 392
3 34 35 29
3 319 285 300
3 443 444 457
3 443 457 456
3 464 463 453
3 403 413 388
3 107 69 96
3 240 239 242
3 141 124 99
3 141 99 142
3 141 159 124
3 419 431 418
3 419 431 441
3 419 418 398
3 419 441 431
3 40 47 41
3 40 41 37
3 40 46 47
3 291 280 292
3 250 231 232
3 250 232 251
3 250 248 231
3 250 251 255
3 437 428 427
3 136 146 147
3 438 409 429
3 438 429 466
3 61 66 52
3 33 9 38
3 33 31 10
3 33 10 9
3 378 368 380
3 378 380 377
3 412 420 411
3 179 170 182
3 499 494 498
3 341 347 338
3 341 343 348
3 341 348 347
3 85 86 110
3 85 109 84
3 85 110 109
3 85 58 86
3 330 319 318
3 129 106 114
3 129 119 106
3 129 114 113
3 129 132 119
3 147 148 136
3 353 366 354
3 18 22 21
3 7 11 8
3 7 8 5
3 267 260 269
3 437 430 428
3 437 428 453
3 390 365 391
3 390 376 365
3 187 202 203
3 512 519 509
3 512 509 510
3 512 510 513
3 238 212 222
3 238 237 241
3 238 241 225
3 238 222 237
3 238 225 212
3 440 431 468
3 440 479 418
3 440 418 431
3 460 483 461
3 226 223 224
3 496 498 494
3 324 323 332
3 87 124 123
3 87 123 86
3 509 518 507
3 509 519 518
3 215 229 249
3 215 249 230
3 35 32 29
3 35 37 32
3 35 29 30
3 27 31 23
3 346 356 359
3 412 411 403
3 178 161 166
3 500 508 495
3 74 68 75
3 122 136 139
3 122 139 110
3 361 373 360
3 516 517 504
3 143 128 144
3 206 219 217
3 42 22 29
3 42 38 22
3 42 29 56
3 269 266 267
3 269 260 267
3 247 246 254
3 435 425 414
3 435 414 426
3 95 116 105
3 98 109 84
3 98 108 109
3 98 84 82
3 361 358 374
3 490 462 484
3 257 259 258
3 139 136 122
3 385 374 409
3 279 292 280
3 44 45 46
3 267 268 269
3 95 93 105
3 386 401 403
3 69 55 96
3 398 385 397
3 295 280 282
3 295 282 312
3 54 53 62
3 71 81 80
3 71 80 79
3 368 378 369
3 368 369 356
3 361 360 358
3 449 462 424
3 449 424 423
3 449 461 484
3 449 484 462
3 223 210 224
3 323 331 332
3 73 74 62
3 73 62 66
3 307 325 308
3 307 308 291
3 415 426 414
3 403 387 386
3 403 401 404
3 40 76 55
3 40 34 35
3 58 59 48
3 270 273 286
3 270 263 273
3 270 286 283
3 444 458 445
3 444 457 458
3 217 219 234
3 381 369 378
3 476 447 448
3 476 448 481
3 209 221 222
3 139 123 110
3 139 152 123
3 2 3 1
3 2 1 0
3 357 345 344
3 164 157 159
3 164 159 165
3 487 488 474
3 487 495 488
3 517 504 507
3 517 516 504
3 517 507 518
3 366 353 354
3 366 365 353
3 459 458 470
3 459 446 445
3 459 445 458
3 459 447 446
3 130 133 134
3 130 134 131
3 402 399 403
3 293 296 281
3 76 77 96
3 76 96 55
3 174 173 188
3 239 236 223
3 239 240 236
3 474 441 494
3 449 421 423
3 312 314 297
3 59 85 86
3 273 288 286
3 273 274 288
3 34 28 32
3 6 5 8
3 231 213 202
3 231 202 216
3 231 248 213
3 231 216 232
3 387 388 403
3 47 46 45
3 240 237 236
3 65 82 84
3 65 71 82
3 462 450 424
3 86 123 110
3 214 204 203
3 393 377 380
3 34 29 35
3 14 0 33
3 134 119 132
3 497 499 494
3 140 148 151
3 140 151 139
3 205 232 216
3 293 278 291
3 134 132 131
3 251 256 255
3 251 232 233
3 471 465 485
3 483 484 461
3 374 383 409
3 412 421 420
3 412 413 421
3 201 211 185
3 201 212 211
3 206 218 217
3 206 192 207
3 206 191 192
3 206 207 218
3 466 429 454
3 100 99 72
3 100 142 99
3 288 303 286
3 518 519 509
3 518 509 507
3 518 507 517
3 208 197 220
3 208 220 221
3 469 456 457
3 496 486 494
3 496 491 486
3 496 494 499
3 214 203 202
3 214 202 213
3 188 173 187
3 520 512 519
3 520 513 512
3 236 237 221
3 236 221 220
3 153 124 159
3 153 157 152
3 153 159 157
3 153 123 124
3 431 473 479
3 431 479 441
3 312 282 297
3 312 297 327
3 426 425 451
3 426 414 425
3 63 69 46
3 63 75 69
3 66 74 73
3 27 24 23
3 171 170 168
3 171 182 170
3 508 495 506
3 109 108 98
3 190 207 192
3 22 29 21
3 22 42 29
3 22 38 42
3 403 411 412
3 335 341 331
3 135 136 139
3 29 42 56
3 29 56 35
3 49 50 51
3 446 447 434
3 272 285 287
3 218 233 232
3 218 232 217
3 406 423 390
3 406 390 376
3 204 187 203
3 393 394 377
3 519 512 509
3 237 222 221
3 473 472 492
3 473 492 479
3 473 454 472
3 421 460 420
3 475 470 469
3 329 327 314
3 411 128 400
3 411 400 128
3 417 428 430
3 417 416 428
3 506 501 502
3 109 110 85
3 109 85 84
3 320 330 317
3 320 301 303
3 504 517 507
3 396 416 409
3 396 409 383
3 354 353 352
3 9 18 38
3 20 16 15
3 423 424 390
3 210 211 224
3 210 185 211
3 210 200 185
3 479 494 441
3 479 492 494
3 73 93 74
3 73 74 66
3 247 249 229
3 45 44 39
3 481 448 460
3 307 291 292
3 503 504 516
3 144 131 145
3 363 375 376
3 23 31 1
3 211 212 224
3 266 269 277
3 501 499 502
3 110 86 85
3 22 38 18
3 299 316 318
3 494 492 499
3 286 303 301
3 448 420 460
3 70 56 35
3 357 358 360
3 31 33 0
3 31 0 1
3 168 169 171
3 139 150 149
3 463 452 453
3 82 71 80
3 212 225 224
3 310 325 333
3 113 114 101
3 454 418 479
3 420 412 411
3 343 337 342
3 371 396 383
3 29 35 56
3 115 92 104
3 341 338 331
3 453 452 437
3 225 226 224
3 117 133 130
3 283 286 301
3 283 301 298
3 116 105 118
3 105 116 118
3 358 361 373
3 361 358 373
3 358 371 373
3 371 383 373
3 136 150 147
3 150 139 147
3 139 136 147
3 403 411 400
3 411 403 400
POINT_DATA 522
SCALARS color float 3
LOOKUP_TABLE default
0.905 0.848 0.936
0.872 0.719 0.918
0.946 0.938 0.961
0.665 0.535 0.959
0.814 0.804 0.886
0.777 0.670 0.908
0.670 0.536 0.860
0.574 0.312 0.950
0.566 0.273 0.905
0.820 0.325 0.952
0.923 0.923 0.957
0.481 0.271 0.931
0.587 0.301 0.959
0.537 0.316 0.856
0.866 0.369 1.000
0.703 0.616 0.955
0.759 0.569 0.904
0.483 0.300 0.938
0.460 0.278 0.901
0.685 0.598 0.945
0.547 0.306 0.904
0.729 0.665 0.888
0.709 0.605 0.905
0.481 0.303 0.928
0.697 0.610 0.963
0.616 0.539 0.851
0.226 0.279 0.549
0.485 0.286 0.951
0.575 0.499 0.882
0.741 0.704 0.862
0.699 0.620 0.867
0.222 0.275 0.556
0.392 0.249 0.874
0.523 0.463 0.766
0.750 0.643 0.898
0.857 0.749 0.907
0.804 0.640 0.857
0.631 0.309 0.898
0.578 0.447 0.853
0.608 0.283 0.884
0.527 0.332 0.913
0.701 0.310 0.895
0.735 0.662 0.944
0.684 0.618 0.922
0.608 0.434 0.919
0.679 0.608 0.911
0.663 0.555 0.914
0.748 0.676 0.909
0.455 0.385 0.781
0.472 0.308 0.985
0.402 0.296 0.815
0.500 0.301 0.950
0.818 0.766 0.874
0.658 0.436 0.918
0.663 0.412 0.878
0.663 0.556 0.935
0.786 0.757 0.925
0.961 0.955 0.974
0.844 0.844 0.871
0.588 0.530 0.827
0.407 0.297 0.816
0.827 0.770 0.928
0.820 0.679 0.951
0.700 0.521 0.937
0.701 0.534 0.912
0.472 0.284 0.927
0.739 0.693 0.895
0.590 0.461 0.892
0.709 0.433 0.881
0.627 0.491 0.884
0.925 0.926 0.938
0.680 0.594 0.896
0.417 0.314 0.822
0.617 0.478 0.876
0.588 0.431 0.877
0.641 0.421 0.933
0.934 0.930 0.941
0.930 0.925 0.927
0.983 0.986 0.990
0.967 0.965 0.977
0.932 0.935 0.959
0.971 0.966 0.992
0.661 0.566 0.912
0.445 0.316 0.755
0.741 0.683 0.910
0.761 0.665 0.883
0.689 0.610 0.875
0.788 0.798 0.828
0.591 0.375 0.822
0.463 0.262 0.892
0.621 0.549 0.797
0.881 0.876 0.902
0.714 0.586 0.940
0.764 0.688 0.894
0.902 0.903 0.905
0.775 0.761 0.917
0.701 0.608 0.916
0.960 0.955 0.975
0.588 0.515 0.812
0.624 0.375 0.915
0.545 0.368 0.965
0.790 0.731 0.901
0.659 0.561 0.871
0.958 0.958 0.985
0.694 0.592 0.920
0.686 0.584 0.890
0.687 0.575 0.974
0.653 0.508 0.947
0.388 0.255 0.891
0.704 0.612 0.872
0.505 0.394 0.801
0.482 0.297 0.930
0.865 0.753 0.925
0.891 0.869 0.968
0.971 0.966 0.992
0.813 0.746 0.961
0.866 0.628 0.980
0.682 0.445 0.902
0.760 0.625 0.914
0.659 0.390 0.919
0.693 0.501 0.934
0.611 0.526 0.904
0.610 0.433 0.898
0.751 0.574 0.920
0.728 0.534 0.922
0.648 0.653 0.815
0.966 0.961 1.000
0.650 0.466 0.941
0.787 0.657 0.881
0.770 0.664 0.933
0.767 0.506 0.885
0.836 0.701 0.903
0.847 0.699 0.875
0.872 0.613 0.933
0.819 0.683 0.921
0.730 0.356 0.945
0.694 0.567 0.888
0.693 0.318 0.959
0.776 0.389 0.945
0.666 0.500 0.863
0.705 0.335 0.991
0.969 0.975 1.000
0.721 0.701 0.870
0.650 0.301 0.873
0.728 0.339 0.847
0.791 0.392 0.881
0.682 0.352 0.871
0.475 0.327 0.831
0.775 0.658 0.881
0.685 0.296 0.884
0.591 0.413 0.869
0.459 0.332 0.723
0.570 0.295 0.893
0.488 0.282 0.944
0.811 0.762 0.933
0.838 0.637 1.000
0.795 0.581 0.973
0.588 0.458 0.886
0.652 0.564 0.869
0.787 0.743 0.978
0.779 0.657 0.869
0.837 0.563 0.938
0.712 0.363 0.945
0.691 0.679 0.770
0.663 0.615 0.812
0.783 0.718 0.954
0.464 0.276 0.937
0.348 0.247 0.872
0.531 0.342 0.947
0.800 0.345 0.933
0.576 0.258 0.856
0.600 0.313 0.905
0.681 0.601 0.940
0.842 0.795 0.894
0.945 0.940 0.950
0.707 0.642 0.916
0.806 0.768 0.899
0.938 0.938 0.949
0.620 0.468 0.981
0.342 0.261 0.689
0.705 0.535 0.919
0.738 0.669 0.907
0.822 0.627 0.889
0.763 0.607 0.871
0.792 0.660 0.884
0.858 0.778 0.911
0.739 0.591 0.911
0.705 0.504 0.920
0.572 0.466 0.874
0.724 0.668 0.916
0.718 0.576 0.943
0.553 0.459 0.809
0.588 0.513 0.904
0.872 0.615 0.890
0.814 0.560 0.880
0.676 0.475 0.856
0.687 0.523 0.886
0.753 0.441 0.879
0.849 0.862 0.883
0.560 0.290 0.917
0.848 0.570 0.817
0.746 0.731 0.831
0.667 0.498 0.919
0.717 0.597 0.920
0.708 0.545 0.910
0.547 0.444 0.884
0.718 0.605 0.864
0.598 0.440 0.935
0.436 0.304 0.782
0.900 0.900 0.902
0.639 0.579 0.830
0.679 0.597 0.910
0.471 0.407 0.782
0.573 0.376 0.875
0.642 0.385 0.929
0.614 0.440 0.892
0.735 0.582 0.882
0.676 0.455 0.905
0.602 0.421 0.887
0.816 0.720 0.894
0.574 0.381 0.841
0.570 0.440 0.750
0.613 0.384 0.793
0.682 0.622 0.789
0.332 0.312 0.598
0.478 0.415 0.748
0.803 0.627 0.920
0.699 0.502 0.929
0.593 0.303 0.968
0.813 0.645 0.969
0.730 0.586 0.881
0.736 0.490 0.929
0.660 0.543 0.844
0.702 0.561 0.863
0.734 0.509 0.880
0.858 0.643 0.927
0.602 0.382 0.780
0.594 0.448 0.821
0.634 0.636 0.787
0.739 0.350 0.998
0.720 0.345 0.980
0.647 0.316 0.980
0.791 0.537 0.900
0.778 0.473 0.948
0.606 0.309 0.971
0.731 0.669 0.898
0.740 0.621 0.892
0.976 0.963 0.995
0.695 0.609 0.855
0.831 0.746 0.887
0.873 0.783 0.949
0.743 0.670 0.929
0.887 0.776 0.932
0.609 0.423 0.800
0.853 0.712 0.865
0.888 0.888 0.897
0.977 0.975 0.993
0.755 0.693 0.899
0.361 0.324 0.666
0.571 0.442 0.845
0.574 0.419 0.878
0.615 0.517 0.858
0.678 0.624 0.822
0.890 0.891 0.896
0.725 0.446 0.909
0.671 0.317 0.971
0.795 0.796 0.816
0.629 0.498 0.864
0.554 0.303 0.944
0.548 0.449 0.860
0.749 0.632 0.947
0.852 0.660 0.949
0.585 0.381 0.907
0.703 0.634 0.965
0.501 0.300 0.952
0.646 0.320 0.933
0.686 0.338 0.973
0.517 0.409 0.901
0.907 0.907 0.942
0.789 0.355 0.938
0.811 0.530 0.915
0.966 0.966 0.993
0.589 0.444 0.820
0.781 0.622 0.960
0.607 0.411 0.935
0.551 0.396 0.935
0.834 0.649 0.981
0.445 0.281 0.929
0.727 0.495 0.942
0.626 0.465 0.897
0.579 0.421 0.935
0.668 0.529 0.817
0.693 0.612 0.868
0.720 0.647 0.865
0.741 0.646 0.896
0.622 0.493 0.841
0.644 0.522 0.870
0.722 0.344 0.901
0.600 0.613 0.743
0.484 0.429 0.704
0.717 0.328 0.995
0.834 0.525 0.970
0.448 0.280 0.937
0.710 0.364 0.949
0.835 0.634 0.927
0.549 0.390 0.880
0.684 0.666 0.849
0.585 0.488 0.776
0.561 0.343 0.853
0.475 0.344 0.780
0.695 0.449 0.945
0.633 0.413 0.937
0.678 0.394 0.909
0.620 0.330 0.913
0.661 0.457 0.915
0.707 0.519 0.855
0.407 0.425 0.631
0.316 0.274 0.612
0.555 0.455 0.726
0.780 0.548 0.973
0.750 0.324 0.888
0.697 0.404 0.889
0.728 0.543 0.952
0.403 0.342 0.743
0.642 0.622 0.810
0.557 0.340 0.814
0.623 0.445 0.896
0.708 0.490 0.900
0.644 0.495 0.830
0.791 0.732 0.884
0.666 0.377 0.845
0.617 0.475 0.835
0.695 0.678 0.818
0.691 0.490 0.890
0.689 0.617 0.956
0.544 0.304 0.952
0.516 0.379 0.858
0.602 0.346 0.894
0.717 0.335 0.958
0.846 0.597 0.911
0.649 0.326 0.908
0.724 0.448 0.956
0.704 0.446 0.871
0.654 0.505 0.785
0.718 0.626 0.962
0.921 0.874 0.942
0.907 0.901 0.904
0.549 0.300 0.978
0.797 0.695 0.907
0.870 0.870 0.880
0.743 0.563 0.862
0.902 0.902 0.902
0.941 0.941 0.941
0.951 0.954 0.966
0.974 0.977 0.984
0.831 0.706 0.908
0.825 0.661 0.859
0.650 0.579 0.893
0.562 0.418 0.826
0.884 0.769 0.908
0.484 0.288 0.936
0.755 0.686 0.875
0.934 0.929 0.931
0.705 0.434 0.923
0.913 0.897 0.935
0.357 0.209 0.820
0.587 0.529 0.826
0.760 0.696 0.927
0.682 0.537 0.872
0.916 0.911 0.937
0.583 0.591 0.769
0.706 0.621 0.973
0.885 0.642 0.936
0.731 0.637 0.897
0.704 0.604 0.843
0.958 0.964 0.966
0.597 0.504 0.947
0.903 0.903 0.892
0.610 0.468 0.914
0.415 0.277 0.928
0.441 0.304 0.846
0.646 0.617 0.831
0.797 0.732 0.918
0.795 0.676 0.931
0.805 0.757 0.934
0.833 0.833 0.889
0.519 0.320 0.852
0.724 0.454 0.878
0.832 0.360 0.955
0.701 0.558 0.916
0.487 0.318 0.791
0.589 0.302 0.793
0.693 0.492 0.920
0.888 0.870 0.950
0.832 0.793 0.888
0.469 0.347 0.873
0.835 0.803 0.916
0.730 0.545 0.887
0.800 0.738 0.979
0.633 0.325 0.808
0.736 0.631 0.879
0.595 0.422 0.831
0.710 0.294 0.922
0.781 0.621 0.889
0.867 0.375 0.994
0.874 0.652 0.940
0.557 0.298 0.954
0.624 0.341 0.862
0.694 0.596 0.922
0.549 0.379 0.870
0.637 0.291 0.903
0.721 0.631 0.882
0.798 0.712 0.947
0.629 0.310 0.926
0.467 0.307 0.683
0.431 0.268 0.892
0.653 0.484 0.930
0.475 0.278 0.938
0.720 0.655 0.921
0.615 0.541 0.891
0.496 0.320 0.858
0.689 0.353 0.922
0.428 0.238 0.883
0.746 0.625 0.912
0.759 0.514 0.922
0.437 0.274 0.936
0.448 0.397 0.687
0.929 0.924 0.935
0.667 0.558 0.921
0.563 0.397 0.942
0.459 0.258 0.835
0.918 0.924 0.926
0.378 0.354 0.637
0.393 0.255 0.838
0.455 0.251 0.878
0.405 0.300 0.789
0.917 0.917 0.927
0.681 0.497 0.907
0.473 0.272 0.851
0.755 0.693 0.898
0.910 0.924 0.937
0.744 0.665 0.940
0.947 0.939 0.960
0.610 0.476 0.855
0.643 0.379 0.865
0.347 0.287 0.613
0.402 0.346 0.652
0.455 0.349 0.800
0.652 0.457 0.955
0.610 0.317 0.847
0.924 0.935 0.929
0.325 0.233 0.579
0.623 0.327 0.909
0.557 0.451 0.829
0.693 0.580 0.900
0.635 0.555 0.857
0.626 0.323 0.891
0.722 0.299 0.889
0.658 0.316 0.864
0.661 0.518 0.889
0.651 0.508 0.900
0.665 0.546 0.878
0.718 0.306 0.934
0.543 0.307 0.835
0.648 0.467 0.856
0.822 0.525 0.942
0.681 0.602 0.930
0.870 0.812 0.927
0.670 0.617 0.818
0.646 0.361 0.842
0.513 0.312 0.813
0.543 0.419 0.789
0.932 0.930 0.946
0.928 0.922 0.930
0.684 0.614 0.847
0.571 0.436 0.840
0.517 0.478 0.755
0.882 0.882 0.882
0.736 0.516 0.934
0.786 0.678 0.923
0.664 0.432 0.956
0.503 0.410 0.774
0.644 0.536 0.936
0.570 0.308 0.894
0.590 0.474 0.911
0.758 0.487 0.978
0.580 0.320 0.887
0.928 0.931 0.936
0.918 0.921 0.931
0.673 0.329 0.943
0.695 0.335 0.976
0.689 0.461 0.947
0.864 0.657 0.940
0.780 0.662 0.915
0.713 0.462 0.924
0.890 0.734 0.964
0.703 0.527 0.927
0.630 0.503 0.940
0.600 0.510 0.932
0.756 0.710 0.885
0.977 0.977 0.999
0.936 0.931 0.930
0.850 0.860 0.855
0.732 0.651 0.905
0.627 0.551 0.861
0.390 0.295 0.801
0.778 0.676 0.895
0.434 0.389 0.783
0.596 0.434 0.923
0.669 0.568 0.926
0.569 0.470 0.783
0.585 0.421 0.875
0.569 0.511 0.756
0.549 0.352 0.797
0.557 0.363 0.705
0.391 0.232 0.836
0.540 0.284 0.898
0.640 0.666 0.788
0.487 0.436 0.811
0.600 0.460 0.895
0.681 0.343 0.954
0.603 0.323 0.913