<?xml version="1.0" encoding="utf-8"?>
<!-- Generator: Adobe Illustrator 26.5.3, SVG Export Plug-In . SVG Version: 6.00 Build 0)  -->
<svg version="1.1" xmlns="http://www.w3.org/2000/svg" xmlns:xlink="http://www.w3.org/1999/xlink" x="0px" y="0px"
	 viewBox="0 0 147.7 39.1" style="enable-background:new 0 0 147.7 39.1;" xml:space="preserve">
<style type="text/css">
	.st0{fill:#FFFFFF;}
	.st1{fill:none;stroke:#00FFFF;stroke-width:1.4723;stroke-linecap:round;stroke-linejoin:round;stroke-miterlimit:10;}
	.st2{fill:none;stroke:#00FFFF;stroke-width:1.5171;stroke-linecap:round;stroke-linejoin:round;stroke-miterlimit:10;}
	.st3{fill:#DEF6FF;}
	.st4{fill:#9DE0F9;}
	.st5{fill:none;stroke:#A8B7EC;stroke-width:1.5;stroke-linecap:round;stroke-linejoin:round;stroke-miterlimit:10;}
	.st6{fill:#2C3E8C;}
	.st7{fill:#A8B7EC;}
	.st8{fill:#12095B;}
	.st9{fill:#00FFFF;}
	.st10{fill:#7970CF;}
	.st11{opacity:0.8;}
	.st12{fill:none;stroke:#26DDE7;stroke-linecap:round;stroke-linejoin:round;stroke-miterlimit:10;}
	.st13{fill:#26DDE7;}
</style>
<g id="Background">
</g>
<g id="_x30_3_LogoType-Only">
</g>
<g id="_x30_2_Alt_Logo">
</g>
<g id="_x30_1_Main_Logo">
	<g>
		
			<image style="overflow:visible;" width="881" height="441" xlink:href="1CC6CD71.png"  transform="matrix(0.24 0 0 0.24 -31.7688 -33.3161)">
		</image>
	</g>
	<g>
		<path class="st0" d="M23.1,27h-6.5c-2.3,0-4.1,1.8-4.1,4.1v0c0,2.3-1.8,4.1-4.1,4.1h0c-2.3,0-4.1-1.8-4.1-4.1V6.5
			c0-2.3,1.8-4.1,4.1-4.1h14.7c4,0,5.8,2.4,5.8,5.8v13C28.9,24.4,26.8,27,23.1,27z M20.7,14.7L20.7,14.7c0-2.3-1.8-4.1-4.1-4.1h0
			c-2.3,0-4.1,1.8-4.1,4.1v0c0,2.3,1.8,4.1,4.1,4.1h0C18.8,18.8,20.7,17,20.7,14.7z"/>
		<path class="st0" d="M83.5,17.4c-1.1,1.1-5,5-5,5c-0.8,0.8-1.2,1.8-1.2,2.9v6.5c0,2.3-1.8,4.1-4.1,4.1h0c-2.3,0-4.1-1.8-4.1-4.1
			v-6.5c0-1.1-0.4-2.1-1.2-2.9c0,0-3.9-3.9-5-5c-1.1-1.1-2-2.9-2-4.6V7.1C60.9,4.9,62.7,3,65,3h0c2.3,0,4.1,1.8,4.1,4.1v2.4
			c0,1.1,0.4,2.1,1.2,2.9l0,0c1.6,1.6,4.2,1.6,5.8,0l0,0c0.8-0.8,1.2-1.8,1.2-2.9V7.1c0-2.3,1.8-4.1,4.1-4.1h0
			c2.3,0,4.1,1.8,4.1,4.1v5.7C85.5,14.4,84.6,16.3,83.5,17.4z"/>
		<path class="st0" d="M139.7,35.2c-2.1,0-4.5-0.3-6-1.6l-3.1-3.1c-1.3-1.3-3.3-0.9-3.4,1.1c-0.2,1.9-1.9,3.6-4.1,3.6
			c-1.7,0-4.1-1.5-4.1-4.1v-24c0-2.6,1.5-4.7,4.1-4.7l14.7,0c4.5,0,5.9,3.2,5.9,5.4V15c0,2.1,0,3.9-1.8,5.6l-2.9,2.9
			c-0.8,0.8-1.9,1.5-0.9,3c1.4,2.1,5.6,1.8,5.6,5.1C143.6,33.5,141.8,35.2,139.7,35.2z M135.4,13.9v-1.2c0-1.1-0.9-2-2-2h-4.1
			c-1.1,0-2,0.9-2,2v3.7c0,1.5,1.3,2.4,2.5,2.4l0,0c1.5,0,1.9-0.3,2.8-1.2l2.3-2.2C135.1,15,135.4,14.4,135.4,13.9z"/>
	</g>
</g>
</svg>
