<?xml version="1.0" encoding="utf-8"?>
<!-- Generator: Adobe Illustrator 26.2.1, SVG Export Plug-In . SVG Version: 6.00 Build 0)  -->
<svg version="1.1" id="Layer_1" xmlns="http://www.w3.org/2000/svg" xmlns:xlink="http://www.w3.org/1999/xlink" x="0px" y="0px"
	 viewBox="0 0 35.8 42" style="enable-background:new 0 0 35.8 42;" xml:space="preserve">
<style type="text/css">
	.st0{fill:#171719;}
	.st1{opacity:0.1;}
	.st2{fill:#9DDEFD;}
	.st3{fill:#5671C0;}
	.st4{fill:#5671C0;stroke:#5671C0;stroke-linecap:round;stroke-linejoin:round;stroke-miterlimit:10;}
	.st5{fill:none;stroke:#5671C0;stroke-linecap:round;stroke-linejoin:round;stroke-miterlimit:10;}
	.st6{fill:url(#SVGID_1_);}
	.st7{fill:url(#SVGID_00000178883647588104906640000008822000863299717305_);}
	.st8{fill:url(#SVGID_00000155127567102576360750000014445074510882476723_);}
	.st9{fill:url(#SVGID_00000026162183867477185760000000266568160482832782_);}
	.st10{opacity:0.49;fill:url(#SVGID_00000106847412636723144500000009760931869882678957_);}
	.st11{fill:none;stroke:#6485D8;stroke-width:4;stroke-linecap:round;stroke-miterlimit:10;}
	.st12{fill:#E1E1E5;}
	.st13{fill:#EEEEEE;}
	.st14{fill:url(#SVGID_00000160896676673759526060000007126694252147430820_);}
	.st15{fill:url(#SVGID_00000168821463704466481530000014576248772516534703_);}
	.st16{fill:url(#SVGID_00000064354745385769646850000006131254721680882837_);}
	.st17{fill:url(#SVGID_00000067945598443306157860000006696152009039933321_);}
	.st18{fill:url(#SVGID_00000025403413157092086780000001830216619830182816_);}
	.st19{fill:url(#SVGID_00000029035613323338136970000014704630092116291212_);}
	.st20{fill:url(#SVGID_00000107584546468410798070000007701355298919825562_);}
	.st21{fill:url(#SVGID_00000010304848704900269990000005509318515828451221_);}
	.st22{fill:url(#SVGID_00000131353621723192318740000006892313562079325851_);}
	.st23{fill:url(#SVGID_00000050635173526749852730000017042959220379529358_);}
	.st24{fill:url(#SVGID_00000021810609219132562320000009971339604160771202_);}
	.st25{fill:url(#SVGID_00000173139032835579884890000016802054589157236906_);}
	.st26{fill:url(#SVGID_00000117677125625485351490000012548455953173343131_);}
	.st27{fill:url(#SVGID_00000118378186438799824890000003513870776237107084_);}
	.st28{fill:none;stroke:#E1F5FF;stroke-width:5;stroke-linecap:round;stroke-miterlimit:10;}
	.st29{fill:url(#SVGID_00000119083850508931169680000014337930193298709424_);}
	.st30{fill:url(#SVGID_00000034057997375108066140000004407899971062210971_);}
	.st31{fill:url(#SVGID_00000021812655628624412590000013032926029156359853_);}
	.st32{fill:url(#SVGID_00000077283940352151577200000005572000179979880619_);}
	.st33{opacity:0.52;}
	.st34{opacity:0.31;fill:#FFFFFF;}
	.st35{fill:none;stroke:#E1F5FF;stroke-width:10;stroke-linecap:round;stroke-linejoin:round;stroke-miterlimit:10;}
	.st36{fill:#AAB6EA;}
	.st37{opacity:0.12;fill:#E1F5FF;}
	.st38{fill:#F8D166;}
	.st39{fill:none;stroke:#F8D166;stroke-width:6;stroke-linecap:round;stroke-linejoin:round;stroke-miterlimit:10;}
	.st40{opacity:0.1;fill:#9DDEFD;}
	.st41{fill:#00CA6F;}
	.st42{fill:none;stroke:#9DDEFD;stroke-width:22;stroke-linecap:round;stroke-linejoin:round;stroke-miterlimit:10;}
	.st43{fill:#111111;}
	.st44{fill:none;stroke:#EEEEEE;stroke-width:2;stroke-linecap:round;stroke-linejoin:round;stroke-miterlimit:10;}
	.st45{fill:none;stroke:#EEEEEE;stroke-width:3;stroke-linecap:round;stroke-linejoin:round;stroke-miterlimit:10;}
	.st46{fill:#111111;stroke:#5671C0;stroke-miterlimit:10;}
	.st47{fill:#C35650;}
	.st48{fill:#693AA0;stroke:#EEEEEE;stroke-width:3;stroke-miterlimit:10;}
	.st49{fill:#EEEEEE;stroke:#EEEEEE;stroke-width:2;stroke-linecap:round;stroke-linejoin:round;stroke-miterlimit:10;}
	.st50{fill:#693AA0;stroke:#EEEEEE;stroke-miterlimit:10;}
	.st51{fill:#EEEEEE;stroke:#EEEEEE;stroke-width:0.75;stroke-linecap:round;stroke-linejoin:round;stroke-miterlimit:10;}
	.st52{fill:#EEEEEE;stroke:#EEEEEE;stroke-width:0.5;stroke-linecap:round;stroke-linejoin:round;stroke-miterlimit:10;}
	.st53{fill:none;stroke:#EEEEEE;stroke-linecap:round;stroke-linejoin:round;stroke-miterlimit:10;}
	.st54{fill:#17171A;stroke:#B8BAC1;stroke-miterlimit:10;}
	.st55{fill:#EA009D;}
	.st56{fill:#EEEEEE;stroke:#FFFFFF;stroke-width:4;stroke-linecap:round;stroke-miterlimit:10;}
	.st57{fill:#111111;stroke:#94969B;stroke-miterlimit:10;}
</style>
<g>
	<circle class="st50" cx="17.9" cy="17.9" r="17.4"/>
	<path class="st51" d="M10.3,20c2.3,2,2,5,2,5.2c0-0.5-0.1-2.6,1.3-4.6c1.4-1.9,3.4-2.5,3.9-2.6c-0.6,0-2-0.2-3.3-1.3
		c-2.3-1.9-2-5-2-5.2c0,0.5,0.1,3.1-2,5.2c-1.5,1.5-3.3,1.9-3.9,2C6.9,18.7,8.7,18.7,10.3,20z"/>
	<path class="st52" d="M21,10.7c1.4,1.2,1.2,3.1,1.2,3.2c0-0.3-0.1-1.6,0.8-2.8c0.9-1.2,2.1-1.5,2.4-1.6c-0.4,0-1.2-0.1-2-0.8
		c-1.4-1.2-1.2-3.1-1.2-3.2c0,0.3,0.1,1.9-1.2,3.2c-0.9,0.9-2,1.2-2.4,1.2C18.8,9.9,20,9.9,21,10.7z"/>
	<path class="st53" d="M11.3,34.3c-0.9,2.4-1.7,4.8-2.6,7.2c6.3,0,12.7,0,19,0c-0.9-2.2-1.7-4.4-2.6-6.6"/>
</g>
</svg>
