<?xml version="1.0" encoding="utf-8"?>
<!-- Generator: Adobe Illustrator 23.0.4, SVG Export Plug-In . SVG Version: 6.00 Build 0)  -->
<svg version="1.1" id="Layer_1" xmlns="http://www.w3.org/2000/svg" xmlns:xlink="http://www.w3.org/1999/xlink" x="0px" y="0px"
	 viewBox="0 0 47 41" style="enable-background:new 0 0 47 41;" xml:space="preserve">
<style type="text/css">
	.st0{fill:#222222;}
	.st1{fill:#EEEEEE;stroke:#EEEEEE;stroke-linejoin:round;stroke-miterlimit:10;}
	.st2{fill:none;stroke:#A3B3BF;stroke-miterlimit:10;}
	.st3{opacity:0.77;fill:#16171A;}
	.st4{clip-path:url(#SVGID_2_);}
	.st5{opacity:0.83;fill:#EEEEEE;}
	.st6{fill:#2BB262;}
	.st7{opacity:0.38;fill:#1E2126;}
	.st8{stroke:#CCCCCC;stroke-width:2;stroke-miterlimit:10;}
	.st9{opacity:0.7;fill:#1E2126;}
	.st10{fill:none;stroke:#CCCCCC;stroke-width:4;stroke-miterlimit:10;}
	.st11{opacity:0.75;fill:#1E2126;}
	.st12{fill:none;stroke:#E6EDF2;stroke-width:5;stroke-linecap:round;stroke-linejoin:round;}
	.st13{opacity:0.65;}
	.st14{opacity:0.78;fill:#42D5EC;}
	.st15{fill:#E6EDF2;stroke:#16171A;stroke-width:8;stroke-linecap:round;stroke-linejoin:round;stroke-miterlimit:10;}
	.st16{fill:none;stroke:#000000;stroke-width:4;stroke-linecap:round;stroke-linejoin:round;stroke-miterlimit:10;}
	.st17{opacity:0.9;fill:#2ECC71;}
	.st18{opacity:0.28;fill:#F9F9F9;}
	.st19{fill:none;stroke:#000000;stroke-width:2;stroke-miterlimit:10;}
	.st20{fill:#16171A;}
	.st21{opacity:0.19;fill:#16171A;}
	.st22{opacity:0.41;fill:#16171A;}
	.st23{fill:#2ECC71;}
	.st24{opacity:0.19;fill:#EEEEEE;}
	.st25{opacity:0.9;fill:#4F74C4;}
	.st26{opacity:0.18;fill:#EEEEEE;}
	.st27{fill:#EEEEEE;}
	.st28{opacity:0.17;fill:#EEEEEE;stroke:#A3B3BF;stroke-miterlimit:10;}
	.st29{clip-path:url(#SVGID_30_);}
	.st30{clip-path:url(#SVGID_32_);}
	.st31{clip-path:url(#SVGID_34_);}
	.st32{opacity:0.15;fill:#EEEEEE;stroke:#A3B3BF;stroke-miterlimit:10;}
	.st33{clip-path:url(#SVGID_36_);}
	.st34{opacity:7.000000e-02;fill:#EEEEEE;}
	.st35{fill:none;stroke:#A3B3BF;stroke-width:0.75;stroke-miterlimit:10;}
	.st36{fill:none;stroke:#A3B3BF;stroke-width:2;stroke-miterlimit:10;}
	.st37{fill:none;stroke:#EEEEEE;stroke-width:3;stroke-miterlimit:10;}
	.st38{fill:none;stroke:#EEEEEE;stroke-miterlimit:10;}
	.st39{fill:url(#copy_button_background_3_);}
	.st40{fill:url(#SVGID_37_);}
	.st41{fill:url(#copy_button_background_4_);}
	.st42{fill:url(#SVGID_38_);}
	.st43{fill:none;stroke:#E6EDF2;stroke-width:6;stroke-linecap:round;stroke-miterlimit:10;}
	.st44{fill:#E6EDF2;}
	.st45{fill:#E6EDF2;stroke:#42D5EC;stroke-width:5;stroke-linecap:round;stroke-miterlimit:10;}
	.st46{fill:#42D5EC;}
	.st47{fill:#333333;}
	.st48{fill:none;stroke:#E6EDF2;stroke-width:4;stroke-linecap:round;stroke-miterlimit:10;}
	.st49{fill:none;stroke:#EEEEEE;stroke-width:3;stroke-linecap:round;stroke-linejoin:round;stroke-miterlimit:10;}
	.st50{fill:none;stroke:#EEEEEE;stroke-width:2;stroke-miterlimit:10;}
	.st51{opacity:0.38;fill:#E6E6E6;}
	.st52{opacity:0.21;fill:#FFFFFF;}
	.st53{fill:url(#SVGID_39_);}
	.st54{fill:url(#SVGID_40_);}
	.st55{fill:none;stroke:#394247;stroke-miterlimit:10;}
	.st56{display:none;fill:#606060;}
	.st57{fill:url(#SVGID_41_);}
	.st58{fill:none;stroke:#1C2328;stroke-miterlimit:10;}
	.st59{display:none;}
	.st60{display:inline;}
	.st61{display:inline;fill:#222222;}
	.st62{display:inline;fill:url(#copy_button_background_5_);}
	.st63{fill:url(#SVGID_42_);}
	.st64{fill:url(#SVGID_43_);}
</style>
<g>
	<g id="Icons_8_">
		<line class="st48" x1="33.2" y1="33.2" x2="44" y2="33.2"/>
		<line class="st48" x1="3" y1="33.2" x2="20.4" y2="33.2"/>
		<line class="st48" x1="7.1" y1="21" x2="3" y2="21"/>
		<line class="st48" x1="44" y1="21" x2="18.9" y2="21"/>
		<line class="st48" x1="40.4" y1="8.1" x2="44" y2="8.1"/>
		<line class="st48" x1="3" y1="8.1" x2="28.6" y2="8.1"/>
		<g>
			<path class="st44" d="M34.7,4c2.2,0,4,1.8,4,4s-1.8,4-4,4s-4-1.7-4-3.9S32.5,4,34.7,4 M34.7,0.9c-3.9,0-7.1,3.2-7.1,7.1
				s3.2,7.1,7.1,7.1s7.1-3.2,7.1-7.1S38.7,0.9,34.7,0.9L34.7,0.9z"/>
		</g>
		<g>
			<path class="st44" d="M12.8,16.7c2.2,0,4,1.8,4,4s-1.8,4-4,4s-4-1.8-4-4S10.6,16.7,12.8,16.7 M12.8,13.6c-3.9,0-7.1,3.2-7.1,7.1
				s3.2,7.1,7.1,7.1s7.1-3.2,7.1-7.1C19.9,16.8,16.7,13.6,12.8,13.6L12.8,13.6z"/>
		</g>
		<g>
			<path class="st44" d="M26.9,29.3c2.2,0,4,1.8,4,4s-1.8,4-4,4s-4-1.8-4-4S24.7,29.3,26.9,29.3 M26.9,26.2c-3.9,0-7.1,3.2-7.1,7.1
				s3.2,7.1,7.1,7.1s7.1-3.2,7.1-7.1S30.9,26.2,26.9,26.2L26.9,26.2z"/>
		</g>
	</g>
</g>
</svg>
