<?xml version="1.0" encoding="utf-8"?>
<!-- Generator: Adobe Illustrator 23.0.4, SVG Export Plug-In . SVG Version: 6.00 Build 0)  -->
<svg version="1.1" id="Layer_1" xmlns="http://www.w3.org/2000/svg" xmlns:xlink="http://www.w3.org/1999/xlink" x="0px" y="0px"
	 viewBox="0 0 148 134" style="enable-background:new 0 0 148 134;" xml:space="preserve">
<style type="text/css">
	.st0{fill:#222222;}
	.st1{display:none;}
	.st2{stroke:#16171A;stroke-miterlimit:10;}
	.st3{fill:#EEEEEE;stroke:#EEEEEE;stroke-linejoin:round;stroke-miterlimit:10;}
	.st4{fill:none;stroke:#A3B3BF;stroke-miterlimit:10;}
	.st5{opacity:0.18;fill:#EEEEEE;}
	.st6{fill:#EEEEEE;}
	.st7{opacity:0.17;fill:#EEEEEE;stroke:#A3B3BF;stroke-miterlimit:10;}
	.st8{clip-path:url(#SVGID_10_);}
	.st9{clip-path:url(#SVGID_12_);}
	.st10{fill:url(#SVGID_13_);}
	.st11{opacity:0.15;fill:#EEEEEE;stroke:#A3B3BF;stroke-miterlimit:10;}
	.st12{opacity:7.000000e-02;fill:#EEEEEE;}
	.st13{fill:none;stroke:#EEEEEE;stroke-width:3;stroke-miterlimit:10;}
	.st14{fill:none;stroke:#EEEEEE;stroke-miterlimit:10;}
	.st15{fill:url(#copy_button_background_3_);}
	.st16{fill:url(#SVGID_14_);}
	.st17{fill:url(#copy_button_background_4_);}
	.st18{fill:url(#SVGID_15_);}
	.st19{fill:none;stroke:#A3B3BF;stroke-width:2;stroke-miterlimit:10;}
	.st20{fill:#E6EDF2;stroke:#42D5EC;stroke-width:5;stroke-linecap:round;stroke-miterlimit:10;}
	.st21{fill:#42D5EC;}
	.st22{fill:url(#SVGID_16_);}
	.st23{fill:#D04F4F;}
	.st24{fill:url(#SVGID_17_);}
	.st25{fill:url(#SVGID_18_);}
	.st26{fill:none;stroke:#394247;stroke-miterlimit:10;}
	.st27{display:none;fill:#606060;}
	.st28{fill:url(#SVGID_19_);}
	.st29{fill:none;stroke:#1C2328;stroke-miterlimit:10;}
	.st30{display:inline;}
	.st31{display:inline;fill:#222222;}
	.st32{display:inline;fill:url(#copy_button_background_5_);}
	.st33{fill:url(#SVGID_20_);}
	.st34{clip-path:url(#SVGID_22_);}
	.st35{fill:#4F74C4;}
	.st36{fill:#2ECC71;}
	.st37{fill:#E6C760;}
	.st38{fill:#6F3BA3;}
	.st39{fill:#F78AA8;}
	.st40{fill:#A3B3BF;}
	.st41{fill:#31333A;}
	.st42{fill:#0292AE;}
	.st43{fill:#0FB18B;}
	.st44{fill:#16171A;stroke:#EEEEEE;stroke-width:0.25;stroke-miterlimit:10;}
	.st45{fill:none;}
	.st46{opacity:0.87;fill:none;stroke:#EEEEEE;stroke-width:2;stroke-linecap:round;stroke-linejoin:round;stroke-miterlimit:10;}
	.st47{opacity:0.87;fill:none;}
	.st48{opacity:0.87;fill:#222222;stroke:#EEEEEE;stroke-width:2;stroke-linecap:round;stroke-linejoin:round;stroke-miterlimit:10;}
	.st49{fill:none;stroke:#222222;stroke-width:2;stroke-linecap:round;stroke-linejoin:round;stroke-miterlimit:10;}
	.st50{opacity:0.87;fill:none;stroke:#EEEEEE;stroke-width:5;stroke-linecap:round;stroke-linejoin:round;stroke-miterlimit:10;}
	.st51{fill:none;stroke:#EEEEEE;stroke-width:5;stroke-linecap:round;stroke-linejoin:round;stroke-miterlimit:10;}
	.st52{display:none;opacity:0.2;}
	.st53{fill:none;stroke:#EEEEEE;stroke-width:7;stroke-linecap:round;stroke-linejoin:round;stroke-miterlimit:10;}
	.st54{fill:none;stroke:#E6EDF2;stroke-width:6;stroke-miterlimit:10;}
</style>
<path class="st53" d="M28.5,74.5c0,16.3,0,32.7,0,49c9.3,0,18.7,0,28,0c0.3-13.3,0.7-26.7,1-40c10.7,0,21.3,0,32,0
	c0.3,13.3,0.7,26.7,1,40c9.7,0,19.3,0,29,0c0-16.7,0-33.3,0-50c3.7,0,7.3,0,11,0c0.6-0.1,3.5-0.6,5-3c1.8-2.8,1.1-7.1-2-10
	c-19.7-16-39.3-32-59-48c-21,16-42,32-63,48c-0.2,0.4-2.5,6.5,1,11c1.3,1.7,2.9,2.6,4,3C20.5,74.5,24.5,74.5,28.5,74.5z"/>
</svg>
