<?xml version="1.0" encoding="utf-8"?>
<!-- Generator: Adobe Illustrator 19.2.1, SVG Export Plug-In . SVG Version: 6.00 Build 0)  -->
<svg version="1.1" xmlns="http://www.w3.org/2000/svg" xmlns:xlink="http://www.w3.org/1999/xlink" x="0px" y="0px"
	 viewBox="0 0 115 115" style="enable-background:new 0 0 115 115;" xml:space="preserve">
<style type="text/css">
	.st0{display:none;}
	.st1{display:inline;fill:#1B2731;}
	.st2{display:inline;}
	.st3{opacity:0.5;}
	.st4{fill:#434C5A;}
	.st5{opacity:0.5;fill:none;stroke:#434C5A;stroke-width:0.125;stroke-linecap:round;stroke-linejoin:round;stroke-miterlimit:10;}
	
		.st6{opacity:0.5;fill:none;stroke:#434C5A;stroke-width:0.125;stroke-linecap:round;stroke-linejoin:round;stroke-miterlimit:10;stroke-dasharray:1.1684,4.6736;}
	.st7{fill:#FFFFFF;}
	.st8{fill:none;stroke:#E6EDF2;stroke-width:6;stroke-linecap:round;stroke-miterlimit:10;}
	.st9{fill:#E6EDF2;}
	.st10{fill:none;stroke:#E6EDF2;stroke-width:6;stroke-miterlimit:10;}
	.st11{fill:none;stroke:#E6EDF2;stroke-width:6;stroke-linejoin:round;stroke-miterlimit:10;}
	.st12{fill:none;stroke:#E6EDF2;stroke-width:6;stroke-linecap:round;stroke-linejoin:round;stroke-miterlimit:10;}
	.st13{fill:none;stroke:#E6EDF2;stroke-width:7;stroke-linecap:round;stroke-miterlimit:10;}
	.st14{fill:#E6EDF2;stroke:#E6EDF2;stroke-width:2;stroke-miterlimit:10;}
	.st15{fill:#E6EDF2;stroke:#E6EDF2;stroke-miterlimit:10;}
	.st16{fill:none;stroke:#E6EDF2;stroke-width:6;stroke-linecap:round;stroke-linejoin:bevel;stroke-miterlimit:10;}
	.st17{fill:none;stroke:#E6EDF2;stroke-width:6;stroke-linecap:round;stroke-linejoin:round;}
	.st18{fill:#E6ECF1;}
	.st19{fill:none;stroke:#E6EDF2;stroke-width:10;stroke-linecap:round;stroke-linejoin:round;stroke-miterlimit:10;}
	.st20{fill:none;stroke:#E6EDF2;stroke-width:8;stroke-linecap:round;stroke-miterlimit:10;}
	.st21{fill:none;stroke:#E6EDF2;stroke-width:8;stroke-linecap:round;stroke-linejoin:round;}
	.st22{display:inline;fill:#E6EDF2;}
	.st23{fill:none;stroke:#A3B3BF;stroke-miterlimit:10;}
	.st24{fill:#A3B3BF;}
</style>
<g id="BG" class="st0">
	<rect x="-692.9" y="-1064.7" class="st1" width="1701.8" height="2001.3"/>
</g>
<g id="Grid" class="st0">
	<g class="st2">
		<g class="st3">
			<path class="st4" d="M112,3v109H3.1V3H112 M112.1,2.9H3v109.2h109.1V2.9L112.1,2.9z"/>
		</g>
		<g class="st3">
			<path class="st4" d="M57.6,23.5c18.7,0,34,15.3,34,34s-15.2,34-34,34s-34-15.3-34-34S38.8,23.5,57.6,23.5 M57.6,23.4
				c-18.8,0-34.1,15.3-34.1,34.1s15.3,34.1,34.1,34.1c18.8,0,34.1-15.3,34.1-34.1S76.4,23.4,57.6,23.4L57.6,23.4z"/>
		</g>
		<line class="st5" x1="112.1" y1="57.5" x2="3" y2="57.5"/>
		<line class="st5" x1="57.6" y1="2.9" x2="57.6" y2="112.1"/>
		<line class="st6" x1="33.5" y1="2.9" x2="33.5" y2="112.1"/>
		<line class="st6" x1="81.4" y1="2.9" x2="81.4" y2="112.1"/>
		<g class="st3">
			<path class="st4" d="M57.6,3c30,0,54.4,24.4,54.4,54.5S87.6,112,57.6,112c-30,0-54.4-24.4-54.4-54.5S27.5,3,57.6,3 M57.6,2.9
				C27.4,2.9,3,27.3,3,57.5s24.4,54.6,54.6,54.6c30.1,0,54.6-24.5,54.6-54.6S87.7,2.9,57.6,2.9L57.6,2.9z"/>
		</g>
		<g class="st3">
			<path class="st4" d="M95.9,19.1v76.9H19.2V19.1H95.9 M96.1,18.9H19v77.1h77V18.9L96.1,18.9z"/>
		</g>
		<line class="st5" x1="96.2" y1="18.8" x2="19.1" y2="96.1"/>
		<line class="st5" x1="19" y1="18.7" x2="96.1" y2="96"/>
		<g class="st3">
			<ellipse class="st7" cx="57.6" cy="57.5" rx="8.5" ry="8.5"/>
			<path class="st4" d="M57.6,49.1c4.6,0,8.4,3.8,8.4,8.4s-3.8,8.4-8.4,8.4c-4.6,0-8.4-3.8-8.4-8.4S52.9,49.1,57.6,49.1 M57.6,49
				c-4.7,0-8.5,3.8-8.5,8.5s3.8,8.5,8.5,8.5c4.7,0,8.5-3.8,8.5-8.5S62.3,49,57.6,49L57.6,49z"/>
		</g>
		<line class="st6" x1="2.9" y1="81.5" x2="112" y2="81.5"/>
		<line class="st6" x1="2.9" y1="33.5" x2="112" y2="33.5"/>
	</g>
</g>
<g id="Icons">
	<circle class="st8" cx="59.7" cy="56.8" r="18.5"/>
	<path class="st11" d="M107.4,57.7c0-5.7-4.3-10.3-9.9-10.9l-9.9-17.4c0.5-1.2,0.8-2.6,0.8-4c0-6-4.9-10.9-10.9-10.9
		c-3.5,0-6.7,1.7-8.7,4.3H50.1c-2-2.6-5.1-4.3-8.7-4.3c-6,0-10.9,4.9-10.9,10.9c0,1.7,0.4,3.2,1,4.6L22,46.9
		c-5.4,0.7-9.5,5.3-9.5,10.8c0,5.8,4.4,10.5,10.1,10.9l9,15.8c-0.7,1.4-1,3-1,4.6c0,6,4.9,10.9,10.9,10.9c3.5,0,6.7-1.7,8.7-4.3
		h18.8c2,2.6,5.1,4.3,8.7,4.3c6,0,10.9-4.9,10.9-10.9c0-1.4-0.3-2.8-0.8-4L97,68.6C102.8,68.3,107.4,63.6,107.4,57.7z"/>
</g>
<g id="Type">
</g>
</svg>
